<svg xmlns="http://www.w3.org/2000/svg" xmlns:xlink="http://www.w3.org/1999/xlink" version="1.0" id="svg" x="0px" y="0px" width="100px" height="100px" viewBox="5.0 -10.0 100.0 135.0" enable-background="new 0 0 100 100" xml:space="preserve">
<path fill="#000000" d="M45,26.25c0.33,0,0.65-0.13,0.88-0.37c0.24-0.23,0.37-0.55,0.37-0.88s-0.13-0.65-0.37-0.88  c-0.46-0.47-1.3-0.47-1.76,0c-0.24,0.23-0.37,0.55-0.37,0.88s0.13,0.65,0.37,0.89C44.35,26.12,44.67,26.25,45,26.25z M54.12,24.12  c-0.24,0.23-0.37,0.55-0.37,0.88s0.13,0.65,0.37,0.88c0.229,0.24,0.55,0.37,0.88,0.37s0.65-0.13,0.88-0.37  c0.24-0.23,0.37-0.55,0.37-0.88s-0.13-0.65-0.37-0.89C55.42,23.65,54.58,23.65,54.12,24.12z M66.25,27.5  c0-8.96-7.29-16.25-16.25-16.25S33.75,18.54,33.75,27.5c0,7.38,4.372,11.746,9,16.369c2.104,2.102,4.279,4.274,6.253,6.885  c6.87,9.088,6.869,21.834-0.003,30.996c-0.414,0.552-0.302,1.336,0.25,1.75c0.225,0.168,0.488,0.25,0.749,0.25  c0.38,0,0.755-0.172,1.001-0.5c7.337-9.783,7.509-23.284,0.559-33.193c1.821-2.298,3.782-4.281,5.691-6.188  C61.878,39.246,66.25,34.88,66.25,27.5z M50,48.005c-1.789-2.19-3.659-4.083-5.483-5.905c-4.619-4.613-8.267-8.257-8.267-14.6  c0-7.582,6.168-13.75,13.75-13.75s13.75,6.168,13.75,13.75c0,6.343-3.648,9.987-8.268,14.6C53.659,43.922,51.789,45.815,50,48.005z   M50,28.75c-3.446,0-6.25,2.804-6.25,6.25s2.804,6.25,6.25,6.25c3.445,0,6.25-2.804,6.25-6.25S53.445,28.75,50,28.75z M50,38.75  c-2.068,0-3.75-1.682-3.75-3.75s1.682-3.75,3.75-3.75c2.068,0,3.75,1.682,3.75,3.75S52.068,38.75,50,38.75z M66.773,51.482  c-0.563,0.399-0.691,1.182-0.291,1.744c0.119,0.168,11.89,16.972,2.478,31.09C65.021,90.225,57.936,93.75,50,93.75  c-7.935,0-15.022-3.525-18.96-9.434c-9.395-14.092,2.358-30.922,2.478-31.092c0.4-0.563,0.269-1.344-0.293-1.742  c-0.563-0.401-1.342-0.271-1.743,0.291c-0.13,0.183-12.881,18.393-2.522,33.931C33.362,92.309,41.228,96.25,50,96.25  c8.771,0,16.639-3.941,21.04-10.546c10.358-15.538-2.394-33.748-2.522-33.931C68.116,51.211,67.334,51.082,66.773,51.482z   M32.5,46.25c0.282,0,0.565-0.095,0.798-0.289c0.531-0.441,0.604-1.229,0.163-1.76c-0.485-0.585-11.773-14.49-2.421-28.519  C34.978,9.776,42.065,6.25,50,6.25c7.936,0,15.021,3.526,18.959,9.432c9.354,14.039-1.936,27.934-2.42,28.519  c-0.441,0.531-0.368,1.319,0.162,1.76c0.529,0.44,1.318,0.37,1.759-0.16c0.131-0.157,12.978-15.897,2.58-31.504  C66.639,7.692,58.771,3.75,50,3.75c-8.772,0-16.638,3.942-21.04,10.546C18.563,29.892,31.409,45.643,31.54,45.8  C31.787,46.097,32.142,46.25,32.5,46.25z M48.94,33.94c-0.28,0.28-0.44,0.67-0.44,1.06s0.16,0.78,0.44,1.06  c0.28,0.28,0.66,0.44,1.06,0.44s0.779-0.16,1.061-0.44C51.34,35.78,51.5,35.4,51.5,35s-0.16-0.78-0.439-1.06  C50.5,33.38,49.49,33.38,48.94,33.94z"/>
<text x="0.0" y="117.5" font-size="5.0" font-weight="bold" font-family="Helvetica Neue, Helvetica, Arial-Unicode, Arial, Sans-serif" fill="#000000">Created by Wojciech Zasina</text><text x="0.0" y="122.5" font-size="5.0" font-weight="bold" font-family="Helvetica Neue, Helvetica, Arial-Unicode, Arial, Sans-serif" fill="#000000">from the Noun Project</text></svg>