<?xml version="1.0" encoding="utf-8"?>
<!-- Generator: Adobe Illustrator 18.1.1, SVG Export Plug-In . SVG Version: 6.00 Build 0)  -->
<svg version="1.1" id="svg" xmlns="http://www.w3.org/2000/svg" xmlns:xlink="http://www.w3.org/1999/xlink" x="0px" y="0px"
	 viewBox="-396.3 231.2 37.2 68.5" enable-background="new -396.3 231.2 37.2 68.5" xml:space="preserve">
<path d="M-381.4,247.9c0.2,0,0.5-0.1,0.7-0.3c0.2-0.2,0.3-0.4,0.3-0.7s-0.1-0.5-0.3-0.7c-0.3-0.3-1-0.3-1.3,0
	c-0.2,0.2-0.3,0.4-0.3,0.7s0.1,0.5,0.3,0.7C-381.9,247.8-381.7,247.9-381.4,247.9z M-374.7,246.3c-0.2,0.2-0.3,0.4-0.3,0.7
	s0.1,0.5,0.3,0.7c0.2,0.2,0.4,0.3,0.7,0.3s0.5-0.1,0.7-0.3c0.2-0.2,0.3-0.4,0.3-0.7s-0.1-0.5-0.3-0.7
	C-373.7,245.9-374.3,245.9-374.7,246.3z M-365.7,248.8c0-6.6-5.4-12-12-12c-6.6,0-12,5.4-12,12c0,5.5,3.2,8.7,6.7,12.1
	c1.6,1.6,3.2,3.2,4.6,5.1c5.1,6.7,5.1,16.2,0,23c-0.3,0.4-0.2,1,0.2,1.3c0.2,0.1,0.4,0.2,0.6,0.2c0.3,0,0.6-0.1,0.7-0.4
	c5.4-7.2,5.6-17.2,0.4-24.6c1.3-1.7,2.8-3.2,4.2-4.6C-368.9,257.5-365.7,254.2-365.7,248.8z M-377.7,264c-1.3-1.6-2.7-3-4.1-4.4
	c-3.4-3.4-6.1-6.1-6.1-10.8c0-5.6,4.6-10.2,10.2-10.2c5.6,0,10.2,4.6,10.2,10.2c0,4.7-2.7,7.4-6.1,10.8
	C-375,260.9-376.4,262.3-377.7,264z M-377.7,249.7c-2.6,0-4.6,2.1-4.6,4.6s2.1,4.6,4.6,4.6c2.6,0,4.6-2.1,4.6-4.6
	S-375.2,249.7-377.7,249.7z M-377.7,257.1c-1.5,0-2.8-1.2-2.8-2.8s1.2-2.8,2.8-2.8c1.5,0,2.8,1.2,2.8,2.8S-376.2,257.1-377.7,257.1z
	 M-365.3,266.5c-0.4,0.3-0.5,0.9-0.2,1.3c0.1,0.1,8.8,12.6,1.8,23c-2.9,4.4-8.2,7-14,7c-5.9,0-11.1-2.6-14-7
	c-7-10.4,1.7-22.9,1.8-23c0.3-0.4,0.2-1-0.2-1.3c-0.4-0.3-1-0.2-1.3,0.2c-0.1,0.1-9.5,13.6-1.9,25.1c3.3,4.9,9.1,7.8,15.6,7.8
	c6.5,0,12.3-2.9,15.6-7.8c7.7-11.5-1.8-25-1.9-25.1C-364.3,266.3-364.9,266.2-365.3,266.5z M-390.7,262.7c0.2,0,0.4-0.1,0.6-0.2
	c0.4-0.3,0.4-0.9,0.1-1.3c-0.4-0.4-8.7-10.7-1.8-21.1c2.9-4.4,8.2-7,14-7c5.9,0,11.1,2.6,14,7c6.9,10.4-1.4,20.7-1.8,21.1
	c-0.3,0.4-0.3,1,0.1,1.3c0.4,0.3,1,0.3,1.3-0.1c0.1-0.1,9.6-11.8,1.9-23.3c-3.3-4.9-9.1-7.8-15.6-7.8c-6.5,0-12.3,2.9-15.6,7.8
	c-7.7,11.6,1.8,23.2,1.9,23.3C-391.2,262.6-390.9,262.7-390.7,262.7z M-378.5,253.5c-0.2,0.2-0.3,0.5-0.3,0.8s0.1,0.6,0.3,0.8
	c0.2,0.2,0.5,0.3,0.8,0.3c0.3,0,0.6-0.1,0.8-0.3c0.2-0.2,0.3-0.5,0.3-0.8s-0.1-0.6-0.3-0.8C-377.3,253.1-378.1,253.1-378.5,253.5z"
	/>
</svg>
