<svg xmlns="http://www.w3.org/2000/svg" xmlns:xlink="http://www.w3.org/1999/xlink" version="1.0" id="svg" x="0px" y="0px" width="100px" height="100px" viewBox="5.0 -10.0 100.0 135.0" enable-background="new 0 0 100 100" xml:space="preserve">
<path fill="#000000" d="M65.559,28.882l-9.309-4.654v-1.433l2.368-4.736c0.086-0.174,0.132-0.365,0.132-0.559V10  c0-0.194-0.045-0.385-0.132-0.559C58.502,9.208,55.707,3.75,50,3.75s-8.502,5.458-8.618,5.691C41.295,9.615,41.25,9.806,41.25,10  v7.5c0,0.194,0.045,0.385,0.132,0.559l2.368,4.736v1.433l-9.309,4.654C34.018,29.094,33.75,29.526,33.75,30v30  c0,0.332,0.132,0.649,0.366,0.884l4.634,4.634V95c0,0.69,0.56,1.25,1.25,1.25s1.25-0.56,1.25-1.25V65  c0-0.332-0.132-0.649-0.366-0.884l-4.634-4.634v-28.71l5.955-2.977l-0.823,1.646c-0.176,0.352-0.176,0.766,0,1.118l5,10  c0.212,0.423,0.645,0.691,1.118,0.691h1.25v9.098c-0.744,0.434-1.25,1.231-1.25,2.152c0,1.378,1.122,2.5,2.5,2.5s2.5-1.122,2.5-2.5  c0-0.921-0.506-1.719-1.25-2.152V41.25h1.25c0.474,0,0.906-0.268,1.118-0.691l5-10c0.176-0.352,0.176-0.766,0-1.118l-0.823-1.646  l5.955,2.977v28.71l-4.634,4.634C58.882,64.351,58.75,64.668,58.75,65v30c0,0.69,0.56,1.25,1.25,1.25s1.25-0.56,1.25-1.25V65.518  l4.634-4.634c0.234-0.234,0.366-0.552,0.366-0.884V30C66.25,29.526,65.982,29.094,65.559,28.882z M51.728,38.75h-3.455L43.897,30  l2.221-4.441c0.011-0.021,0.009-0.045,0.018-0.066c0.047-0.109,0.078-0.223,0.093-0.343c0.004-0.035,0.013-0.068,0.015-0.103  c0-0.016,0.006-0.03,0.006-0.046v-2.5c0-0.194-0.045-0.385-0.132-0.559l-2.368-4.736v-6.883C44.28,9.419,46.398,6.25,50,6.25  c3.576,0,5.716,3.177,6.25,4.075v6.88l-2.368,4.736c-0.086,0.174-0.132,0.365-0.132,0.559V25c0,0.016,0.006,0.031,0.006,0.046  c0.001,0.035,0.01,0.068,0.015,0.103c0.015,0.12,0.045,0.234,0.093,0.343c0.009,0.021,0.007,0.045,0.018,0.066L56.103,30  L51.728,38.75z"/>
<text x="0.0" y="117.5" font-size="5.0" font-weight="bold" font-family="Helvetica Neue, Helvetica, Arial-Unicode, Arial, Sans-serif" fill="#000000">Created by Wojciech Zasina</text><text x="0.0" y="122.5" font-size="5.0" font-weight="bold" font-family="Helvetica Neue, Helvetica, Arial-Unicode, Arial, Sans-serif" fill="#000000">from the Noun Project</text></svg>