<?xml version="1.0" encoding="utf-8"?>
<!-- Generator: Adobe Illustrator 18.1.1, SVG Export Plug-In . SVG Version: 6.00 Build 0)  -->
<svg version="1.1" id="svg" xmlns="http://www.w3.org/2000/svg" xmlns:xlink="http://www.w3.org/1999/xlink" x="0px" y="0px"
	 viewBox="-389.7 231.2 24.1 68.5" enable-background="new -389.7 231.2 24.1 68.5" xml:space="preserve">
<path d="M-366.2,249.8l-6.9-3.4v-1.1l1.8-3.5c0.1-0.1,0.1-0.3,0.1-0.4v-5.6c0-0.1,0-0.3-0.1-0.4c-0.1-0.2-2.2-4.2-6.4-4.2
	c-4.2,0-6.3,4-6.4,4.2c-0.1,0.1-0.1,0.3-0.1,0.4v5.6c0,0.1,0,0.3,0.1,0.4l1.8,3.5v1.1l-6.9,3.4c-0.3,0.2-0.5,0.5-0.5,0.8v22.2
	c0,0.2,0.1,0.5,0.3,0.7l3.4,3.4v21.8c0,0.5,0.4,0.9,0.9,0.9s0.9-0.4,0.9-0.9v-22.2c0-0.2-0.1-0.5-0.3-0.7l-3.4-3.4v-21.3l4.4-2.2
	l-0.6,1.2c-0.1,0.3-0.1,0.6,0,0.8l3.7,7.4c0.2,0.3,0.5,0.5,0.8,0.5h0.9v6.7c-0.6,0.3-0.9,0.9-0.9,1.6c0,1,0.8,1.9,1.9,1.9
	c1,0,1.9-0.8,1.9-1.9c0-0.7-0.4-1.3-0.9-1.6V259h0.9c0.4,0,0.7-0.2,0.8-0.5l3.7-7.4c0.1-0.3,0.1-0.6,0-0.8l-0.6-1.2l4.4,2.2v21.3
	l-3.4,3.4c-0.2,0.2-0.3,0.4-0.3,0.7v22.2c0,0.5,0.4,0.9,0.9,0.9c0.5,0,0.9-0.4,0.9-0.9v-21.8l3.4-3.4c0.2-0.2,0.3-0.4,0.3-0.7v-22.2
	C-365.7,250.3-365.9,250-366.2,249.8z M-376.4,257.1h-2.6l-3.2-6.5l1.6-3.3c0,0,0,0,0,0c0-0.1,0.1-0.2,0.1-0.3c0,0,0-0.1,0-0.1
	c0,0,0,0,0,0v-1.9c0-0.1,0-0.3-0.1-0.4l-1.8-3.5v-5.1c0.4-0.7,2-3,4.6-3c2.6,0,4.2,2.4,4.6,3v5.1l-1.8,3.5c-0.1,0.1-0.1,0.3-0.1,0.4
	v1.9c0,0,0,0,0,0c0,0,0,0.1,0,0.1c0,0.1,0,0.2,0.1,0.3c0,0,0,0,0,0l1.6,3.3L-376.4,257.1z"/>
</svg>
