<svg xmlns="http://www.w3.org/2000/svg" xmlns:xlink="http://www.w3.org/1999/xlink" version="1.0" id="svg" x="0px" y="0px" width="100px" height="100px" viewBox="5.0 -10.0 100.0 135.0" enable-background="new 0 0 100 100" xml:space="preserve">
<path fill="#000000" d="M91.25,35c0-13.107-8.143-21.25-21.25-21.25c-14.318,0-16.25,9.479-16.25,18.75  c0,1.194-0.564,2.708-1.163,4.312c-1.338,3.589-3.088,8.283,1.063,12.11c-6.995,0.635-13.021,3.016-17.467,6.713  c-0.655-9.334-6.215-14.279-11.603-19.069c-5.569-4.951-10.83-9.628-10.83-19.066c0-0.69-0.56-1.25-1.25-1.25s-1.25,0.56-1.25,1.25  c0,10.562,5.933,15.834,11.669,20.934c5.57,4.951,10.831,9.627,10.831,19.066c0,0.133,0.037,0.255,0.076,0.375  c-1.936,2.122-3.442,4.557-4.415,7.268l-6.027-6.026c-0.439-0.44-1.135-0.489-1.634-0.116l-10,7.5  c-0.552,0.414-0.664,1.198-0.25,1.75c0.246,0.328,0.621,0.5,1.001,0.5c0.261,0,0.524-0.082,0.749-0.25l9.133-6.85l6.733,6.732  c0.318,0.319,0.785,0.442,1.217,0.321c0.434-0.12,0.77-0.464,0.879-0.901C33.727,57.748,44.045,51.25,57.5,51.25  c0.58,0,1.083-0.398,1.217-0.963c0.133-0.564-0.139-1.146-0.658-1.405c-6.156-3.078-4.752-6.84-3.129-11.197  c0.68-1.821,1.32-3.54,1.32-5.185c0-9.754,2.338-16.25,13.75-16.25c11.741,0,18.75,7.009,18.75,18.75S81.741,53.75,70,53.75  c-0.689,0-1.25,0.561-1.25,1.25c0,12.532-5.555,22.615-14.855,26.973c-7.73,3.62-16.58,2.498-23.095-2.933  c-0.531-0.442-1.318-0.37-1.761,0.16c-0.442,0.53-0.37,1.319,0.16,1.761c4.446,3.705,9.863,5.613,15.374,5.613  c3.499,0,7.035-0.77,10.381-2.338c9.897-4.635,15.909-15.065,16.261-28.033C83.602,55.706,91.25,47.692,91.25,35z"/>
<text x="0.0" y="117.5" font-size="5.0" font-weight="bold" font-family="Helvetica Neue, Helvetica, Arial-Unicode, Arial, Sans-serif" fill="#000000">Created by Wojciech Zasina</text><text x="0.0" y="122.5" font-size="5.0" font-weight="bold" font-family="Helvetica Neue, Helvetica, Arial-Unicode, Arial, Sans-serif" fill="#000000">from the Noun Project</text></svg>