<?xml version="1.0" encoding="utf-8"?>
<!-- Generator: Adobe Illustrator 18.1.1, SVG Export Plug-In . SVG Version: 6.00 Build 0)  -->
<svg version="1.1" id="svg" xmlns="http://www.w3.org/2000/svg" xmlns:xlink="http://www.w3.org/1999/xlink" x="0px" y="0px"
	 viewBox="-406.4 238.6 59.3 53.9" enable-background="new -406.4 238.6 59.3 53.9" xml:space="preserve">
<path d="M-347.1,254.3c0-9.7-6-15.7-15.7-15.7c-10.6,0-12,7-12,13.9c0,0.9-0.4,2-0.9,3.2c-1,2.7-2.3,6.1,0.8,9
	c-5.2,0.5-9.6,2.2-12.9,5c-0.5-6.9-4.6-10.6-8.6-14.1c-4.1-3.7-8-7.1-8-14.1c0-0.5-0.4-0.9-0.9-0.9s-0.9,0.4-0.9,0.9
	c0,7.8,4.4,11.7,8.6,15.5c4.1,3.7,8,7.1,8,14.1c0,0.1,0,0.2,0.1,0.3c-1.4,1.6-2.5,3.4-3.3,5.4l-4.5-4.5c-0.3-0.3-0.8-0.4-1.2-0.1
	l-7.4,5.6c-0.4,0.3-0.5,0.9-0.2,1.3c0.2,0.2,0.5,0.4,0.7,0.4c0.2,0,0.4-0.1,0.6-0.2l6.8-5.1l5,5c0.2,0.2,0.6,0.3,0.9,0.2
	c0.3-0.1,0.6-0.3,0.7-0.7c1.9-7.4,9.5-12.3,19.5-12.3c0.4,0,0.8-0.3,0.9-0.7c0.1-0.4-0.1-0.8-0.5-1c-4.6-2.3-3.5-5.1-2.3-8.3
	c0.5-1.3,1-2.6,1-3.8c0-7.2,1.7-12,10.2-12c8.7,0,13.9,5.2,13.9,13.9s-5.2,13.9-13.9,13.9c-0.5,0-0.9,0.4-0.9,0.9
	c0,9.3-4.1,16.8-11,20c-5.7,2.7-12.3,1.9-17.1-2.2c-0.4-0.3-1-0.3-1.3,0.1c-0.3,0.4-0.3,1,0.1,1.3c3.3,2.7,7.3,4.2,11.4,4.2
	c2.6,0,5.2-0.6,7.7-1.7c7.3-3.4,11.8-11.2,12-20.8C-352.8,269.7-347.1,263.7-347.1,254.3z"/>
</svg>
