<svg xmlns="http://www.w3.org/2000/svg" xmlns:xlink="http://www.w3.org/1999/xlink" version="1.0" id="svg" x="0px" y="0px" width="100px" height="100px" viewBox="5.0 -10.0 100.0 135.0" enable-background="new 0 0 100 100" xml:space="preserve">
<path fill="#000000" d="M75,16.25h-7.5c-0.689,0-1.25,0.56-1.25,1.25s0.561,1.25,1.25,1.25H75c2.066,0,3.75,1.683,3.75,3.75v60  c0,2.066-1.684,3.75-3.75,3.75H63.75V70c0-0.689-0.561-1.25-1.25-1.25h-25c-0.69,0-1.25,0.561-1.25,1.25v16.25H25  c-2.067,0-3.75-1.684-3.75-3.75v-60c0-2.067,1.683-3.75,3.75-3.75h7.5c0.69,0,1.25-0.56,1.25-1.25s-0.56-1.25-1.25-1.25H25  c-3.446,0-6.25,2.804-6.25,6.25v60c0,3.445,2.804,6.25,6.25,6.25h12.5h25H75c3.445,0,6.25-2.805,6.25-6.25v-60  C81.25,19.054,78.445,16.25,75,16.25z M38.75,86.25v-15h22.5v15H38.75z M50,76.25c-0.69,0-1.25,0.561-1.25,1.25V80  c0,0.689,0.56,1.25,1.25,1.25c0.689,0,1.25-0.561,1.25-1.25v-2.5C51.25,76.811,50.689,76.25,50,76.25z M43.75,21.25h3.75V25  c0,0.69,0.56,1.25,1.25,1.25h2.5c0.689,0,1.25-0.56,1.25-1.25v-3.75h3.75c0.689,0,1.25-0.56,1.25-1.25v-2.5  c0-0.69-0.561-1.25-1.25-1.25H52.5V12.5c0-0.69-0.561-1.25-1.25-1.25h-2.5c-0.69,0-1.25,0.56-1.25,1.25v3.75h-3.75  c-0.69,0-1.25,0.56-1.25,1.25V20C42.5,20.69,43.06,21.25,43.75,21.25z M26.25,32.5v30c0,0.689,0.56,1.25,1.25,1.25h45  c0.689,0,1.25-0.561,1.25-1.25v-30c0-0.69-0.561-1.25-1.25-1.25h-45C26.81,31.25,26.25,31.81,26.25,32.5z M56.25,51.25h-12.5v-7.5  h12.5V51.25z M58.75,43.75h12.5v7.5h-12.5V43.75z M41.25,51.25h-12.5v-7.5h12.5V51.25z M28.75,53.75h12.5v7.5h-12.5V53.75z   M43.75,53.75h12.5v7.5h-12.5V53.75z M58.75,53.75h12.5v7.5h-12.5V53.75z M71.25,41.25h-12.5v-7.5h12.5V41.25z M56.25,41.25h-12.5  v-7.5h12.5V41.25z M41.25,41.25h-12.5v-7.5h12.5V41.25z"/>
<text x="0.0" y="117.5" font-size="5.0" font-weight="bold" font-family="Helvetica Neue, Helvetica, Arial-Unicode, Arial, Sans-serif" fill="#000000">Created by Wojciech Zasina</text><text x="0.0" y="122.5" font-size="5.0" font-weight="bold" font-family="Helvetica Neue, Helvetica, Arial-Unicode, Arial, Sans-serif" fill="#000000">from the Noun Project</text></svg>