<?xml version="1.0" encoding="utf-8"?>
<!-- Generator: Adobe Illustrator 18.1.1, SVG Export Plug-In . SVG Version: 6.00 Build 0)  -->
<svg version="1.1"
	 id="svg2" xmlns:dc="http://purl.org/dc/elements/1.1/" xmlns:cc="http://creativecommons.org/ns#" xmlns:rdf="http://www.w3.org/1999/02/22-rdf-syntax-ns#" xmlns:svg="http://www.w3.org/2000/svg" xmlns:sodipodi="http://sodipodi.sourceforge.net/DTD/sodipodi-0.dtd" xmlns:inkscape="http://www.inkscape.org/namespaces/inkscape" sodipodi:docname="hospital_lineart.svg" inkscape:version="0.48+devel r12862"
	 xmlns="http://www.w3.org/2000/svg" xmlns:xlink="http://www.w3.org/1999/xlink" x="0px" y="0px"
	 viewBox="-299.2 149.1 641.2 264.5" enable-background="new -299.2 149.1 641.2 264.5" xml:space="preserve">
<g id="layer1_1_" transform="translate(-204.80533,-396.45186)" inkscape:label="Calque 1" inkscape:groupmode="layer">
	<g id="g4324_1_" transform="matrix(0.85709348,0,0,0.85709348,-58.379541,29.979084)">
		
			<path id="path3442_1_" sodipodi:nodetypes="ccccc" inkscape:connector-curvature="0" fill="#FFFFFF" stroke="#000000" stroke-width="2.3335" stroke-linecap="round" stroke-linejoin="round" d="
			M259.2,715.7l3.3,180.8l402.9,2.2l1.1-181.9L259.2,715.7z"/>
		
			<path id="path4236_1_" sodipodi:nodetypes="ccccc" inkscape:connector-curvature="0" fill="#FFFFFF" stroke="#000000" stroke-width="2.3335" stroke-linecap="round" stroke-linejoin="round" d="
			M522.4,688.2l1,7.2l105.2,0.5l-0.1-8.7L522.4,688.2z"/>
		
			<path id="path4234_1_" sodipodi:nodetypes="ccccc" inkscape:connector-curvature="0" fill="#FFFFFF" stroke="#000000" stroke-width="2.3335" stroke-linecap="round" stroke-linejoin="round" d="
			M293.4,686.1v9.4h111.5l-1-9.7L293.4,686.1z"/>
		
			<path id="path4242_1_" sodipodi:nodetypes="ccccc" inkscape:connector-curvature="0" fill="#FFFFFF" stroke="#000000" stroke-width="1.1667" stroke-linecap="round" stroke-linejoin="round" d="
			M459.7,616.2l0.3,48l6.2-0.6l0.5-47.3L459.7,616.2z"/>
		
			<path id="path4322_1_" inkscape:connector-curvature="0" fill="#FFFFFF" stroke="#000000" stroke-width="1.1667" stroke-linecap="round" stroke-linejoin="round" d="
			M476.2,603.6l-1.7,62.3l9.1-0.7v-61.6H476.2z"/>
		
			<path id="path4212_1_" sodipodi:nodetypes="ccccc" inkscape:connector-curvature="0" fill="#FFFFFF" stroke="#000000" stroke-width="2.3335" stroke-linecap="round" stroke-linejoin="round" d="
			M402,664.4l0.9,237.4l125.4,1l-2-237.8L402,664.4z"/>
		
			<path id="path4220_1_" sodipodi:nodetypes="ccccc" inkscape:connector-curvature="0" fill="#FFFFFF" stroke="#000000" stroke-width="2.3335" stroke-linecap="round" stroke-linejoin="round" d="
			M381.1,846.1v62.7l14.1-0.1l-0.6-62.9L381.1,846.1z"/>
		
			<path id="path4222_1_" sodipodi:nodetypes="ccccc" inkscape:connector-curvature="0" fill="#FFFFFF" stroke="#000000" stroke-width="2.3335" stroke-linecap="round" stroke-linejoin="round" d="
			M534.4,843.8l-0.7,62.8l14.2-0.3l-1-63.6L534.4,843.8z"/>
		
			<path id="path4214_1_" sodipodi:nodetypes="ccccc" inkscape:connector-curvature="0" fill="#FFFFFF" stroke="#000000" stroke-width="2.3335" stroke-linecap="round" stroke-linejoin="round" d="
			M377.3,815.4v30l175.3,0.7l-0.3-30L377.3,815.4z"/>
		
			<path id="path4216_1_" sodipodi:nodetypes="ccccc" inkscape:connector-curvature="0" fill="#FFFFFF" stroke="#000000" stroke-width="1.1667" stroke-linecap="round" stroke-linejoin="round" d="
			M428,855.2l0.7,45.9l76.5,1.5l-0.7-47.1L428,855.2z"/>
		
			<path id="path4218_1_" sodipodi:nodetypes="cc" inkscape:connector-curvature="0" fill="#FFFFFF" stroke="#000000" stroke-width="1.1667" stroke-linecap="round" stroke-linejoin="round" d="
			M466.5,856l0.8,45.9"/>
		
			<path id="path4228_1_" sodipodi:nodetypes="ccccc" inkscape:connector-curvature="0" fill="#FFFFFF" stroke="#000000" stroke-width="1.1667" stroke-linecap="round" stroke-linejoin="round" d="
			M448.7,694.4v23.2l26.3-1v-22.3H448.7z"/>
		
			<ellipse id="path4240_1_" fill="#FFFFFF" stroke="#000000" stroke-width="1.2119" stroke-linecap="round" stroke-linejoin="round" cx="441.8" cy="654.1" rx="13" ry="13.1"/>
		
			<path id="path4258_1_" sodipodi:nodetypes="ccccc" inkscape:connector-curvature="0" fill="#FFFFFF" stroke="#000000" stroke-width="1.1667" stroke-linecap="round" stroke-linejoin="round" d="
			M566.6,740.9l-0.7,21.3h33.9v-22.3L566.6,740.9z"/>
		
			<path id="path4260_1_" sodipodi:nodetypes="ccccc" inkscape:connector-curvature="0" fill="#FFFFFF" stroke="#000000" stroke-width="1.1667" stroke-linecap="round" stroke-linejoin="round" d="
			M613.3,739.9v21.3h33.9v-22.3L613.3,739.9z"/>
		
			<path id="path4262_1_" sodipodi:nodetypes="ccccc" inkscape:connector-curvature="0" fill="#FFFFFF" stroke="#000000" stroke-width="1.1667" stroke-linecap="round" stroke-linejoin="round" d="
			M613.3,739.9v21.3h33.9v-22.3L613.3,739.9z"/>
		
			<path id="path4264_1_" sodipodi:nodetypes="ccccc" inkscape:connector-curvature="0" fill="#FFFFFF" stroke="#000000" stroke-width="1.1667" stroke-linecap="round" stroke-linejoin="round" d="
			M566.9,780.9v22h33.9v-22.3L566.9,780.9z"/>
		
			<path id="path4266_1_" sodipodi:nodetypes="ccccc" inkscape:connector-curvature="0" fill="#FFFFFF" stroke="#000000" stroke-width="1.1667" stroke-linecap="round" stroke-linejoin="round" d="
			M613.3,780.6v21.3h33.9v-22.3L613.3,780.6z"/>
		
			<path id="path4268_1_" sodipodi:nodetypes="ccccc" inkscape:connector-curvature="0" fill="#FFFFFF" stroke="#000000" stroke-width="1.1667" stroke-linecap="round" stroke-linejoin="round" d="
			M567.6,815l-0.7,22.7h33.9v-22.3L567.6,815z"/>
		
			<path id="path4270_1_" sodipodi:nodetypes="ccccc" inkscape:connector-curvature="0" fill="#FFFFFF" stroke="#000000" stroke-width="1.1667" stroke-linecap="round" stroke-linejoin="round" d="
			M613.3,815.4v21.3h33.9v-22.3L613.3,815.4z"/>
		
			<path id="path4272_1_" sodipodi:nodetypes="ccccc" inkscape:connector-curvature="0" fill="#FFFFFF" stroke="#000000" stroke-width="1.1667" stroke-linecap="round" stroke-linejoin="round" d="
			M565,852.2v21.3h33.9v-22.3L565,852.2z"/>
		
			<path id="path4274_1_" sodipodi:nodetypes="ccccc" inkscape:connector-curvature="0" fill="#FFFFFF" stroke="#000000" stroke-width="1.1667" stroke-linecap="round" stroke-linejoin="round" d="
			M611.4,851.3v21.3h33.9v-22.3L611.4,851.3z"/>
		
			<path id="path4284_1_" sodipodi:nodetypes="ccccc" inkscape:connector-curvature="0" fill="#FFFFFF" stroke="#000000" stroke-width="1.1667" stroke-linecap="round" stroke-linejoin="round" d="
			M283.4,733.1v21.3h33.9v-22.3L283.4,733.1z"/>
		
			<path id="path4286_1_" sodipodi:nodetypes="ccccc" inkscape:connector-curvature="0" fill="#FFFFFF" stroke="#000000" stroke-width="1.1667" stroke-linecap="round" stroke-linejoin="round" d="
			M330.8,732.2v21.3h33.9v-22.3L330.8,732.2z"/>
		
			<path id="path4288_1_" sodipodi:nodetypes="ccccc" inkscape:connector-curvature="0" fill="#FFFFFF" stroke="#000000" stroke-width="1.1667" stroke-linecap="round" stroke-linejoin="round" d="
			M331.5,731.5l-0.7,22h33.9v-22.3L331.5,731.5z"/>
		
			<path id="path4290_1_" sodipodi:nodetypes="ccccc" inkscape:connector-curvature="0" fill="#FFFFFF" stroke="#000000" stroke-width="1.1667" stroke-linecap="round" stroke-linejoin="round" d="
			M284.4,773.8v21.3h33.9v-22.3L284.4,773.8z"/>
		
			<path id="path4292_1_" sodipodi:nodetypes="ccccc" inkscape:connector-curvature="0" fill="#FFFFFF" stroke="#000000" stroke-width="1.1667" stroke-linecap="round" stroke-linejoin="round" d="
			M330.8,772.8v21.3h33.9v-22.3L330.8,772.8z"/>
		
			<path id="path4294_1_" sodipodi:nodetypes="ccccc" inkscape:connector-curvature="0" fill="#FFFFFF" stroke="#000000" stroke-width="1.1667" stroke-linecap="round" stroke-linejoin="round" d="
			M284.4,808.7V830h33.9v-22.3L284.4,808.7z"/>
		
			<path id="path4296_1_" sodipodi:nodetypes="ccccc" inkscape:connector-curvature="0" fill="#FFFFFF" stroke="#000000" stroke-width="1.1667" stroke-linecap="round" stroke-linejoin="round" d="
			M330.8,807.7V829h33.9v-22.3L330.8,807.7z"/>
		
			<path id="path4298_1_" sodipodi:nodetypes="ccccc" inkscape:connector-curvature="0" fill="#FFFFFF" stroke="#000000" stroke-width="1.1667" stroke-linecap="round" stroke-linejoin="round" d="
			M282.5,844.5v21.3h33.9v-22.3L282.5,844.5z"/>
		
			<path id="path4300_1_" sodipodi:nodetypes="ccccc" inkscape:connector-curvature="0" fill="#FFFFFF" stroke="#000000" stroke-width="1.1667" stroke-linecap="round" stroke-linejoin="round" d="
			M328.9,843.5v21.3h33.9v-22.3L328.9,843.5z"/>
		
			<path id="path4304_1_" inkscape:connector-curvature="0" fill="#FFFFFF" stroke="#000000" stroke-width="1.1667" stroke-linecap="round" stroke-linejoin="round" d="
			M303.7,696l-0.7,19.2h6.2V696H303.7z"/>
		
			<path id="path4306_1_" inkscape:connector-curvature="0" fill="#FFFFFF" stroke="#000000" stroke-width="1.1667" stroke-linecap="round" stroke-linejoin="round" d="
			M334.5,696l-0.7,19.2h6.2V696H334.5z"/>
		
			<path id="path4308_1_" inkscape:connector-curvature="0" fill="#FFFFFF" stroke="#000000" stroke-width="1.1667" stroke-linecap="round" stroke-linejoin="round" d="
			M334.5,696l-0.7,19.2h6.2V696H334.5z"/>
		
			<path id="path4310_1_" inkscape:connector-curvature="0" fill="#FFFFFF" stroke="#000000" stroke-width="1.1667" stroke-linecap="round" stroke-linejoin="round" d="
			M370.8,696.7l-0.7,19.2h6.2v-19.2H370.8z"/>
		
			<path id="path4312_1_" inkscape:connector-curvature="0" fill="#FFFFFF" stroke="#000000" stroke-width="1.1667" stroke-linecap="round" stroke-linejoin="round" d="
			M543.2,696.7l-0.7,19.2h6.2v-19.2H543.2z"/>
		
			<path id="path4314_1_" inkscape:connector-curvature="0" fill="#FFFFFF" stroke="#000000" stroke-width="1.1667" stroke-linecap="round" stroke-linejoin="round" d="
			M573.3,696.7l-0.7,19.2h6.2v-19.2H573.3z"/>
		
			<path id="path4316_1_" inkscape:connector-curvature="0" fill="#FFFFFF" stroke="#000000" stroke-width="1.1667" stroke-linecap="round" stroke-linejoin="round" d="
			M603.4,696.7l-0.7,19.2h6.2v-19.2H603.4z"/>
		
			<path id="path4318_1_" sodipodi:nodetypes="ccccc" inkscape:connector-curvature="0" fill="#FFFFFF" stroke="#000000" stroke-width="1.1667" stroke-linecap="round" stroke-linejoin="round" d="
			M448.7,734.1v23.2l26.8,0.5l-0.5-23.7H448.7z"/>
		
			<path id="path4320_1_" sodipodi:nodetypes="ccccc" inkscape:connector-curvature="0" fill="#FFFFFF" stroke="#000000" stroke-width="1.1667" stroke-linecap="round" stroke-linejoin="round" d="
			M448.7,769.7V793l26.3,0.4v-23.6H448.7z"/>
	</g>
</g>
<title  id="title4366">hospital lineart</title>
<sodipodi:namedview  fit-margin-left="2" fit-margin-top="2" showgrid="false" inkscape:cy="25.312843" inkscape:cx="0.61207251" inkscape:zoom="0.73086115" borderopacity="1.0" bordercolor="#666666" pagecolor="#ffffff" id="base" inkscape:window-maximized="0" inkscape:window-y="0" inkscape:window-x="0" inkscape:window-height="954" inkscape:window-width="1375" fit-margin-bottom="2" inkscape:pageshadow="2" inkscape:pageopacity="0.0" inkscape:document-units="px" fit-margin-right="2" inkscape:current-layer="layer1">
	</sodipodi:namedview>
<g id="layer1" transform="translate(-204.80533,-396.45186)" inkscape:label="Calque 1" inkscape:groupmode="layer">
	<g id="g4324" transform="matrix(0.85709348,0,0,0.85709348,-58.379541,29.979084)">
		
			<path id="path3442" sodipodi:nodetypes="ccccc" inkscape:connector-curvature="0" fill="#FFFFFF" stroke="#000000" stroke-width="2.3335" stroke-linecap="round" stroke-linejoin="round" d="
			M-40.6,714.2l3.3,180.6l402.9,2.2l1.1-181.7L-40.6,714.2z"/>
		
			<path id="path4236" sodipodi:nodetypes="ccccc" inkscape:connector-curvature="0" fill="#FFFFFF" stroke="#000000" stroke-width="2.3335" stroke-linecap="round" stroke-linejoin="round" d="
			M222.5,686.8l1,7.2l105.2,0.5l-0.1-8.7L222.5,686.8z"/>
		
			<path id="path4234" sodipodi:nodetypes="ccccc" inkscape:connector-curvature="0" fill="#FFFFFF" stroke="#000000" stroke-width="2.3335" stroke-linecap="round" stroke-linejoin="round" d="
			M-6.5,684.6v9.4H105l-1-9.7L-6.5,684.6z"/>
		
			<path id="path4242" sodipodi:nodetypes="ccccc" inkscape:connector-curvature="0" fill="#FFFFFF" stroke="#000000" stroke-width="1.1667" stroke-linecap="round" stroke-linejoin="round" d="
			M159.9,614.9l0.3,48l6.2-0.6l0.5-47.3L159.9,614.9z"/>
		
			<path id="path4322" inkscape:connector-curvature="0" fill="#FFFFFF" stroke="#000000" stroke-width="1.1667" stroke-linecap="round" stroke-linejoin="round" d="
			M176.4,602.2l-1.7,62.3l9.1-0.7v-61.6H176.4z"/>
		
			<path id="path4212" sodipodi:nodetypes="ccccc" inkscape:connector-curvature="0" fill="#FFFFFF" stroke="#000000" stroke-width="2.3335" stroke-linecap="round" stroke-linejoin="round" d="
			M102.2,662.9l0.9,237.2l125.4,1l-2-237.6L102.2,662.9z"/>
		
			<path id="path4220" sodipodi:nodetypes="ccccc" inkscape:connector-curvature="0" fill="#FFFFFF" stroke="#000000" stroke-width="2.3335" stroke-linecap="round" stroke-linejoin="round" d="
			M81.3,844.5v62.6l14.1-0.1l-0.6-62.9L81.3,844.5z"/>
		
			<path id="path4222" sodipodi:nodetypes="ccccc" inkscape:connector-curvature="0" fill="#FFFFFF" stroke="#000000" stroke-width="2.3335" stroke-linecap="round" stroke-linejoin="round" d="
			M234.6,842.2l-0.7,62.7l14.2-0.3l-1-63.5L234.6,842.2z"/>
		
			<path id="path4214" sodipodi:nodetypes="ccccc" inkscape:connector-curvature="0" fill="#FFFFFF" stroke="#000000" stroke-width="2.3335" stroke-linecap="round" stroke-linejoin="round" d="
			M77.4,813.9v30l175.3,0.7l-0.3-30L77.4,813.9z"/>
		
			<path id="path4216" sodipodi:nodetypes="ccccc" inkscape:connector-curvature="0" fill="#FFFFFF" stroke="#000000" stroke-width="1.1667" stroke-linecap="round" stroke-linejoin="round" d="
			M128.2,853.5l0.7,45.9l76.5,1.5l-0.7-47L128.2,853.5z"/>
		
			<path id="path4218" sodipodi:nodetypes="cc" inkscape:connector-curvature="0" fill="#FFFFFF" stroke="#000000" stroke-width="1.1667" stroke-linecap="round" stroke-linejoin="round" d="
			M166.7,854.4l0.8,45.8"/>
		
			<path id="path4228" sodipodi:nodetypes="ccccc" inkscape:connector-curvature="0" fill="#FFFFFF" stroke="#000000" stroke-width="1.1667" stroke-linecap="round" stroke-linejoin="round" d="
			M148.8,692.9v23.2l26.3-1v-22.3H148.8z"/>
		
			<ellipse id="path4240" fill="#FFFFFF" stroke="#000000" stroke-width="1.2119" stroke-linecap="round" stroke-linejoin="round" cx="141.9" cy="652.7" rx="13" ry="13.1"/>
		
			<path id="path4258" sodipodi:nodetypes="ccccc" inkscape:connector-curvature="0" fill="#FFFFFF" stroke="#000000" stroke-width="1.1667" stroke-linecap="round" stroke-linejoin="round" d="
			M266.8,739.4l-0.7,21.3h33.9v-22.3L266.8,739.4z"/>
		
			<path id="path4260" sodipodi:nodetypes="ccccc" inkscape:connector-curvature="0" fill="#FFFFFF" stroke="#000000" stroke-width="1.1667" stroke-linecap="round" stroke-linejoin="round" d="
			M313.5,738.4v21.3h33.9v-22.3L313.5,738.4z"/>
		
			<path id="path4262" sodipodi:nodetypes="ccccc" inkscape:connector-curvature="0" fill="#FFFFFF" stroke="#000000" stroke-width="1.1667" stroke-linecap="round" stroke-linejoin="round" d="
			M313.5,738.4v21.3h33.9v-22.3L313.5,738.4z"/>
		
			<path id="path4264" sodipodi:nodetypes="ccccc" inkscape:connector-curvature="0" fill="#FFFFFF" stroke="#000000" stroke-width="1.1667" stroke-linecap="round" stroke-linejoin="round" d="
			M267,779.3v22h33.9V779L267,779.3z"/>
		
			<path id="path4266" sodipodi:nodetypes="ccccc" inkscape:connector-curvature="0" fill="#FFFFFF" stroke="#000000" stroke-width="1.1667" stroke-linecap="round" stroke-linejoin="round" d="
			M313.5,779v21.3h33.9v-22.3L313.5,779z"/>
		
			<path id="path4268" sodipodi:nodetypes="ccccc" inkscape:connector-curvature="0" fill="#FFFFFF" stroke="#000000" stroke-width="1.1667" stroke-linecap="round" stroke-linejoin="round" d="
			M267.7,813.5l-0.7,22.7h33.9v-22.3L267.7,813.5z"/>
		
			<path id="path4270" sodipodi:nodetypes="ccccc" inkscape:connector-curvature="0" fill="#FFFFFF" stroke="#000000" stroke-width="1.1667" stroke-linecap="round" stroke-linejoin="round" d="
			M313.5,813.9v21.3h33.9v-22.3L313.5,813.9z"/>
		
			<path id="path4272" sodipodi:nodetypes="ccccc" inkscape:connector-curvature="0" fill="#FFFFFF" stroke="#000000" stroke-width="1.1667" stroke-linecap="round" stroke-linejoin="round" d="
			M265.1,850.6v21.3H299v-22.3L265.1,850.6z"/>
		
			<path id="path4274" sodipodi:nodetypes="ccccc" inkscape:connector-curvature="0" fill="#FFFFFF" stroke="#000000" stroke-width="1.1667" stroke-linecap="round" stroke-linejoin="round" d="
			M311.5,849.7V871h33.9v-22.3L311.5,849.7z"/>
		
			<path id="path4284" sodipodi:nodetypes="ccccc" inkscape:connector-curvature="0" fill="#FFFFFF" stroke="#000000" stroke-width="1.1667" stroke-linecap="round" stroke-linejoin="round" d="
			M-16.4,731.6v21.3h33.9v-22.3L-16.4,731.6z"/>
		
			<path id="path4286" sodipodi:nodetypes="ccccc" inkscape:connector-curvature="0" fill="#FFFFFF" stroke="#000000" stroke-width="1.1667" stroke-linecap="round" stroke-linejoin="round" d="
			M31,730.7V752h33.9v-22.3L31,730.7z"/>
		
			<path id="path4288" sodipodi:nodetypes="ccccc" inkscape:connector-curvature="0" fill="#FFFFFF" stroke="#000000" stroke-width="1.1667" stroke-linecap="round" stroke-linejoin="round" d="
			M31.7,730L31,752h33.9v-22.3L31.7,730z"/>
		
			<path id="path4290" sodipodi:nodetypes="ccccc" inkscape:connector-curvature="0" fill="#FFFFFF" stroke="#000000" stroke-width="1.1667" stroke-linecap="round" stroke-linejoin="round" d="
			M-15.5,772.3v21.3h33.9v-22.3L-15.5,772.3z"/>
		
			<path id="path4292" sodipodi:nodetypes="ccccc" inkscape:connector-curvature="0" fill="#FFFFFF" stroke="#000000" stroke-width="1.1667" stroke-linecap="round" stroke-linejoin="round" d="
			M31,771.3v21.3h33.9v-22.3L31,771.3z"/>
		
			<path id="path4294" sodipodi:nodetypes="ccccc" inkscape:connector-curvature="0" fill="#FFFFFF" stroke="#000000" stroke-width="1.1667" stroke-linecap="round" stroke-linejoin="round" d="
			M-15.5,807.1v21.3h33.9v-22.3L-15.5,807.1z"/>
		
			<path id="path4296" sodipodi:nodetypes="ccccc" inkscape:connector-curvature="0" fill="#FFFFFF" stroke="#000000" stroke-width="1.1667" stroke-linecap="round" stroke-linejoin="round" d="
			M31,806.1v21.3h33.9v-22.3L31,806.1z"/>
		
			<path id="path4298" sodipodi:nodetypes="ccccc" inkscape:connector-curvature="0" fill="#FFFFFF" stroke="#000000" stroke-width="1.1667" stroke-linecap="round" stroke-linejoin="round" d="
			M-17.4,842.9v21.3h33.9v-22.3L-17.4,842.9z"/>
		
			<path id="path4300" sodipodi:nodetypes="ccccc" inkscape:connector-curvature="0" fill="#FFFFFF" stroke="#000000" stroke-width="1.1667" stroke-linecap="round" stroke-linejoin="round" d="
			M29,841.9v21.3h33.9V841L29,841.9z"/>
		
			<path id="path4304" inkscape:connector-curvature="0" fill="#FFFFFF" stroke="#000000" stroke-width="1.1667" stroke-linecap="round" stroke-linejoin="round" d="
			M3.9,694.6l-0.7,19.2h6.2v-19.2H3.9z"/>
		
			<path id="path4306" inkscape:connector-curvature="0" fill="#FFFFFF" stroke="#000000" stroke-width="1.1667" stroke-linecap="round" stroke-linejoin="round" d="
			M34.7,694.6L34,713.7h6.2v-19.2H34.7z"/>
		
			<path id="path4308" inkscape:connector-curvature="0" fill="#FFFFFF" stroke="#000000" stroke-width="1.1667" stroke-linecap="round" stroke-linejoin="round" d="
			M34.7,694.6L34,713.7h6.2v-19.2H34.7z"/>
		
			<path id="path4310" inkscape:connector-curvature="0" fill="#FFFFFF" stroke="#000000" stroke-width="1.1667" stroke-linecap="round" stroke-linejoin="round" d="
			M70.9,695.3l-0.7,19.2h6.2v-19.2H70.9z"/>
		
			<path id="path4312" inkscape:connector-curvature="0" fill="#FFFFFF" stroke="#000000" stroke-width="1.1667" stroke-linecap="round" stroke-linejoin="round" d="
			M243.3,695.3l-0.7,19.2h6.2v-19.2H243.3z"/>
		
			<path id="path4314" inkscape:connector-curvature="0" fill="#FFFFFF" stroke="#000000" stroke-width="1.1667" stroke-linecap="round" stroke-linejoin="round" d="
			M273.4,695.3l-0.7,19.2h6.2v-19.2H273.4z"/>
		
			<path id="path4316" inkscape:connector-curvature="0" fill="#FFFFFF" stroke="#000000" stroke-width="1.1667" stroke-linecap="round" stroke-linejoin="round" d="
			M303.5,695.3l-0.7,19.2h6.2v-19.2H303.5z"/>
		
			<path id="path4318" sodipodi:nodetypes="ccccc" inkscape:connector-curvature="0" fill="#FFFFFF" stroke="#000000" stroke-width="1.1667" stroke-linecap="round" stroke-linejoin="round" d="
			M148.8,732.6v23.2l26.8,0.5l-0.5-23.7H148.8z"/>
		
			<path id="path4320" sodipodi:nodetypes="ccccc" inkscape:connector-curvature="0" fill="#FFFFFF" stroke="#000000" stroke-width="1.1667" stroke-linecap="round" stroke-linejoin="round" d="
			M148.8,768.2v23.2l26.3,0.4v-23.6H148.8z"/>
	</g>
</g>
<path fill="#FFFFFF" stroke="#000000" stroke-miterlimit="10" d="M88,388.2"/>
<path fill="#FFFFFF" stroke="#000000" stroke-miterlimit="10" d="M342,389.2"/>
</svg>
