<svg xmlns="http://www.w3.org/2000/svg" xmlns:xlink="http://www.w3.org/1999/xlink" version="1.0" id="svg" x="0px" y="0px" width="100px" height="100px" viewBox="5.0 -10.0 100.0 135.0" enable-background="new 0 0 100 100" xml:space="preserve">
<path fill="#000000" d="M40.883,61.616l-2.5-2.5c-0.488-0.488-1.279-0.488-1.768,0c-0.489,0.487-0.488,1.278,0,1.768l2.134,2.134V95  c0,0.689,0.56,1.25,1.25,1.25s1.25-0.561,1.25-1.25V62.5c0-0.163-0.033-0.325-0.096-0.479C41.09,61.869,40.999,61.73,40.883,61.616z   M65.75,29l-9.166-6.874l2.034-4.067c0.067-0.136,0.103-0.283,0.116-0.433c0.002-0.025,0.009-0.049,0.01-0.075  c0-0.018,0.006-0.034,0.006-0.051V10c0-0.194-0.045-0.385-0.132-0.559C58.502,9.208,55.707,3.75,50,3.75s-8.502,5.458-8.618,5.691  c-0.067,0.136-0.102,0.283-0.117,0.433c-0.002,0.025-0.008,0.049-0.009,0.075c0,0.018-0.006,0.034-0.006,0.051v7.5  c0,0.194,0.045,0.385,0.132,0.559l2.034,4.067L34.25,29c-0.315,0.236-0.5,0.606-0.5,1v17.5c0,0.063,0.027,0.117,0.036,0.177  c0.013,0.089,0.021,0.177,0.053,0.261c0.029,0.077,0.075,0.14,0.118,0.208c0.042,0.068,0.077,0.137,0.132,0.196  c0.061,0.066,0.136,0.112,0.21,0.164c0.05,0.035,0.086,0.083,0.142,0.111l15,7.5c0.18,0.09,0.37,0.132,0.558,0.132  c0.458,0,0.899-0.253,1.119-0.69c0.31-0.619,0.058-1.369-0.56-1.678l-11.812-5.905l3.665-4.122l14.527,7.264  c0.181,0.09,0.369,0.132,0.559,0.132c0.458,0,0.898-0.253,1.119-0.691c0.311-0.618,0.058-1.368-0.561-1.677l-3.994-1.997  l6.887-18.36l2.799,2.1v26.357l-4.635,4.634c-0.233,0.233-0.365,0.552-0.365,0.884V95c0,0.689,0.561,1.25,1.25,1.25  s1.25-0.561,1.25-1.25V63.018l4.634-4.634c0.234-0.233,0.366-0.552,0.366-0.884V30C66.25,29.606,66.064,29.236,65.75,29z   M56.25,10.325v5.152l-6.264-3.132l5.204-3.469C55.715,9.477,56.072,10.027,56.25,10.325z M50,6.25c1.251,0,2.322,0.393,3.216,0.937  l-5.806,3.871l-3.113-1.557C45.239,8.225,47.154,6.25,50,6.25z M42.5,33.75c-0.69,0-1.25,0.56-1.25,1.25v6.4l-4.684,5.27  c-0.044,0.05-0.062,0.112-0.097,0.167l-0.219-0.109V30.625l9.5-7.125c0.483-0.362,0.638-1.019,0.368-1.559l-2.368-4.736v-5.183  l12.072,6.037l-1.94,3.882c-0.271,0.541-0.114,1.197,0.368,1.559l1.747,1.31L43.75,38.587V35C43.75,34.31,43.19,33.75,42.5,33.75z   M58.83,27.061l-7.012,18.7l-7.686-3.842l13.87-15.604l0.88,0.66C58.869,27.006,58.842,27.028,58.83,27.061z M62.5,23.75H65  c0.689,0,1.25-0.56,1.25-1.25s-0.561-1.25-1.25-1.25h-2.5c-0.689,0-1.25,0.56-1.25,1.25S61.811,23.75,62.5,23.75z"/>
<text x="0.0" y="117.5" font-size="5.0" font-weight="bold" font-family="Helvetica Neue, Helvetica, Arial-Unicode, Arial, Sans-serif" fill="#000000">Created by Wojciech Zasina</text><text x="0.0" y="122.5" font-size="5.0" font-weight="bold" font-family="Helvetica Neue, Helvetica, Arial-Unicode, Arial, Sans-serif" fill="#000000">from the Noun Project</text></svg>