<?xml version="1.0" encoding="utf-8"?>
<!-- Generator: Adobe Illustrator 18.1.1, SVG Export Plug-In . SVG Version: 6.00 Build 0)  -->
<svg version="1.1" id="svg" xmlns="http://www.w3.org/2000/svg" xmlns:xlink="http://www.w3.org/1999/xlink" x="0px" y="0px"
	 viewBox="-389.7 231.2 24.1 68.5" enable-background="new -389.7 231.2 24.1 68.5" xml:space="preserve">
<path d="M-384.5,274l-1.9-1.9c-0.4-0.4-0.9-0.4-1.3,0c-0.4,0.4-0.4,0.9,0,1.3l1.6,1.6v23.7c0,0.5,0.4,0.9,0.9,0.9s0.9-0.4,0.9-0.9
	v-24.1c0-0.1,0-0.2-0.1-0.4C-384.3,274.2-384.4,274.1-384.5,274z M-366,249.9l-6.8-5.1l1.5-3c0-0.1,0.1-0.2,0.1-0.3c0,0,0,0,0-0.1
	c0,0,0,0,0,0v-5.6c0-0.1,0-0.3-0.1-0.4c-0.1-0.2-2.2-4.2-6.4-4.2c-4.2,0-6.3,4-6.4,4.2c0,0.1-0.1,0.2-0.1,0.3c0,0,0,0,0,0.1
	c0,0,0,0,0,0v5.6c0,0.1,0,0.3,0.1,0.4l1.5,3l-6.8,5.1c-0.2,0.2-0.4,0.4-0.4,0.7v13c0,0,0,0.1,0,0.1c0,0.1,0,0.1,0,0.2
	c0,0.1,0.1,0.1,0.1,0.2c0,0.1,0.1,0.1,0.1,0.1c0,0,0.1,0.1,0.2,0.1c0,0,0.1,0.1,0.1,0.1l11.1,5.6c0.1,0.1,0.3,0.1,0.4,0.1
	c0.3,0,0.7-0.2,0.8-0.5c0.2-0.5,0-1-0.4-1.2l-8.7-4.4l2.7-3.1l10.8,5.4c0.1,0.1,0.3,0.1,0.4,0.1c0.3,0,0.7-0.2,0.8-0.5
	c0.2-0.5,0-1-0.4-1.2l-3-1.5l5.1-13.6l2.1,1.6v19.5l-3.4,3.4c-0.2,0.2-0.3,0.4-0.3,0.7v24.1c0,0.5,0.4,0.9,0.9,0.9
	c0.5,0,0.9-0.4,0.9-0.9v-23.7l3.4-3.4c0.2-0.2,0.3-0.4,0.3-0.7v-20.4C-365.7,250.3-365.8,250.1-366,249.9z M-373.1,236.1v3.8
	l-4.6-2.3l3.9-2.6C-373.5,235.4-373.2,235.8-373.1,236.1z M-377.7,233c0.9,0,1.7,0.3,2.4,0.7l-4.3,2.9l-2.3-1.2
	C-381.2,234.5-379.8,233-377.7,233z M-383.3,253.4c-0.5,0-0.9,0.4-0.9,0.9v4.7l-3.5,3.9c0,0,0,0.1-0.1,0.1l-0.2-0.1v-11.9l7-5.3
	c0.4-0.3,0.5-0.8,0.3-1.2l-1.8-3.5v-3.8l8.9,4.5l-1.4,2.9c-0.2,0.4-0.1,0.9,0.3,1.2l1.3,1l-9.1,10.2v-2.7
	C-382.3,253.8-382.7,253.4-383.3,253.4z M-371.2,248.5l-5.2,13.9l-5.7-2.8l10.3-11.6L-371.2,248.5
	C-371.1,248.4-371.2,248.4-371.2,248.5z M-368.4,246h1.9c0.5,0,0.9-0.4,0.9-0.9s-0.4-0.9-0.9-0.9h-1.9c-0.5,0-0.9,0.4-0.9,0.9
	S-369,246-368.4,246z"/>
</svg>
