<?xml version="1.0" encoding="utf-8"?>
<!-- Generator: Adobe Illustrator 18.1.1, SVG Export Plug-In . SVG Version: 6.00 Build 0)  -->
<svg version="1.1" id="svg" xmlns="http://www.w3.org/2000/svg" xmlns:xlink="http://www.w3.org/1999/xlink" x="0px" y="0px"
	 viewBox="381.9 0.4 196.2 559.2" enable-background="new 381.9 0.4 196.2 559.2" xml:space="preserve">
<path d="M538.9,559.6c-4.1,0-7.4-3.3-7.4-7.4V370.7c0-1.6,0.8-4.1,2.5-5.7l27.8-27.8V163.1l-56.4-27.8c-2.5-1.6-4.1-4.1-4.1-6.5
	v-15.5c0-0.8,0-2.5,0.8-3.3l14.7-28.6V39.6c-3.3-5.7-16.4-24.5-37.6-24.5c-22.1,0-34.3,18.8-37.6,24.5v41.7l14.7,28.6
	c0.8,0.8,0.8,2.5,0.8,3.3v15.5c0,3.3-1.6,5.7-4.1,6.5l-56.4,27.8v174.1l27.8,27.8c1.6,1.6,2.5,3.3,2.5,5.7v181.5
	c0,4.1-3.3,7.4-7.4,7.4c-4.1,0-7.4-3.3-7.4-7.4V374l-27.8-27.8c-1.6-1.6-2.5-3.3-2.5-5.7V159c0-3.3,1.6-5.7,4.1-6.5l56.4-27.8v-9
	l-14.7-28.6c-0.8-0.8-0.8-2.5-0.8-3.3V38c0-0.8,0-2.5,0.8-3.3c0.8-1.6,18-34.3,52.3-34.3c34.3,0,51.5,32.7,52.3,34.3
	c0.8,0.8,0.8,2.5,0.8,3.3v45.8c0,0.8,0,2.5-0.8,3.3l-14.7,28.6v9l56.4,27.8c2.5,1.6,4.1,4.1,4.1,6.5v181.5c0,1.6-0.8,4.1-2.5,5.7
	L547.9,374v178.2C546.2,556.3,542.9,559.6,538.9,559.6z"/>
</svg>
