<svg xmlns="http://www.w3.org/2000/svg" xmlns:xlink="http://www.w3.org/1999/xlink" version="1.0" id="svg" x="0px" y="0px" width="100px" height="100px" viewBox="5.0 -10.0 100.0 135.0" enable-background="new 0 0 100 100" xml:space="preserve">
<path fill="#000000" d="M60,96.25c-0.689,0-1.25-0.561-1.25-1.25V65c0-0.332,0.132-0.648,0.366-0.884l4.634-4.634v-28.71  l-9.309-4.654C54.018,25.906,53.75,25.474,53.75,25v-2.5c0-0.194,0.045-0.385,0.132-0.559l2.368-4.736v-6.88  C55.716,9.427,53.576,6.25,50,6.25c-3.602,0-5.72,3.169-6.25,4.072v6.883l2.368,4.736c0.086,0.174,0.132,0.365,0.132,0.559V25  c0,0.474-0.268,0.906-0.691,1.118l-9.309,4.654v28.71l4.634,4.634C41.118,64.35,41.25,64.668,41.25,65v30  c0,0.689-0.56,1.25-1.25,1.25s-1.25-0.561-1.25-1.25V65.518l-4.634-4.634C33.882,60.648,33.75,60.332,33.75,60V30  c0-0.474,0.268-0.906,0.691-1.118l9.309-4.654v-1.433l-2.368-4.736c-0.086-0.174-0.132-0.365-0.132-0.559V10  c0-0.194,0.045-0.385,0.132-0.559C41.498,9.208,44.293,3.75,50,3.75s8.502,5.458,8.618,5.691C58.705,9.615,58.75,9.806,58.75,10v7.5  c0,0.194-0.045,0.385-0.132,0.559l-2.368,4.736v1.433l9.309,4.654c0.424,0.212,0.691,0.645,0.691,1.118v30  c0,0.332-0.132,0.648-0.366,0.884l-4.634,4.634V95C61.25,95.689,60.689,96.25,60,96.25z"/>
<text x="0.0" y="117.5" font-size="5.0" font-weight="bold" font-family="Helvetica Neue, Helvetica, Arial-Unicode, Arial, Sans-serif" fill="#000000">Created by Wojciech Zasina</text><text x="0.0" y="122.5" font-size="5.0" font-weight="bold" font-family="Helvetica Neue, Helvetica, Arial-Unicode, Arial, Sans-serif" fill="#000000">from the Noun Project</text></svg>