<?xml version="1.0" encoding="utf-8"?>
<!-- Generator: Adobe Illustrator 17.0.0, SVG Export Plug-In . SVG Version: 6.00 Build 0)  -->
<!DOCTYPE svg PUBLIC "-//W3C//DTD SVG 1.1//EN" "http://www.w3.org/Graphics/SVG/1.1/DTD/svg11.dtd">
<svg version="1.1" id="svg" xmlns="http://www.w3.org/2000/svg" xmlns:xlink="http://www.w3.org/1999/xlink" x="0px" y="0px"
	 width="155.29px" height="792px" viewBox="252.87 5 155.29 792" enable-background="new 252.87 5 155.29 792" xml:space="preserve"
	>
<g id="XMLID_1_">
	<g>
		<path d="M408.16,149.94c0,3.11-1.03,5.18-3.1,7.25s-4.14,3.1-7.25,3.1l-135.62-1.03c-5.18,0-9.32-4.14-9.32-9.32
			c0-5.18,4.14-9.32,9.32-9.32h136.66C404.02,140.62,408.16,144.76,408.16,149.94z"/>
		<path d="M394.71,190.32l-3.11,406.87c0,3.1-1.04,5.17-3.11,7.25l-51.76,50.72l-1.04,131.49c0,3.1-1.03,5.17-3.1,7.24
			s-4.14,3.11-7.25,3.11c-5.18,0-9.32-4.14-9.32-9.32l1.04-131.48l-50.73-51.76c-2.07-2.08-3.11-5.18-3.11-7.25l3.11-406.87
			c0-5.18,4.14-9.32,9.32-9.32h109.74C390.56,181,394.71,185.14,394.71,190.32z M374,277.28l2.07-78.68l-89.03-1.04l-3.11,393.42
			l44.52,44.51l44.51-44.51l1.04-81.79c-1.04,1.03-3.11,1.03-4.14,1.03h-26.92c-5.18,0-9.32-4.14-9.32-9.32
			c0-5.17,4.14-9.31,9.32-9.31h26.92c2.07,0,3.1,0,4.14,1.03v-37.27c-1.04,1.04-3.11,1.04-4.14,1.04h-26.92
			c-5.18,0-9.32-4.14-9.32-9.32s4.14-9.32,9.32-9.32h26.92c2.07,0,3.1,0,4.14,1.04v-37.27c-1.04,1.03-3.11,1.03-4.14,1.03h-26.92
			c-5.18,0-9.32-4.14-9.32-9.32c0-5.17,4.14-9.31,9.32-9.31h26.92c2.07,0,3.1,0,4.14,1.03v-37.27c-1.04,1.04-3.11,1.04-4.14,1.04
			h-26.92c-5.18,0-9.32-4.14-9.32-9.32s4.14-9.32,9.32-9.32h26.92c2.07,0,3.1,0,4.14,1.04v-37.27c-1.04,1.03-3.11,1.03-4.14,1.03
			h-26.92c-5.18,0-9.32-4.14-9.32-9.32c0-5.17,4.14-9.31,9.32-9.31h26.92C371.93,276.25,372.96,276.25,374,277.28z"/>
		<path d="M382.28,14.32c0,3.1-1.03,5.17-3.1,7.24c-2.07,2.08-4.15,3.11-7.25,3.11l-81.79-1.03c-5.18,0-9.32-4.15-9.32-9.32
			c0-5.18,4.14-9.32,9.32-9.32l81.79,1.04C377.11,6.04,382.28,10.18,382.28,14.32z"/>
		<path fill="#143942" d="M376.07,198.6L374,277.28c-1.04-1.03-2.07-1.03-4.14-1.03h-26.92c-5.18,0-9.32,4.14-9.32,9.31
			c0,5.18,4.14,9.32,9.32,9.32h26.92c1.03,0,3.1,0,4.14-1.03v37.27c-1.04-1.04-2.07-1.04-4.14-1.04h-26.92
			c-5.18,0-9.32,4.14-9.32,9.32s4.14,9.32,9.32,9.32h26.92c1.03,0,3.1,0,4.14-1.04v37.27c-1.04-1.03-2.07-1.03-4.14-1.03h-26.92
			c-5.18,0-9.32,4.14-9.32,9.31c0,5.18,4.14,9.32,9.32,9.32h26.92c1.03,0,3.1,0,4.14-1.03v37.27c-1.04-1.04-2.07-1.04-4.14-1.04
			h-26.92c-5.18,0-9.32,4.14-9.32,9.32s4.14,9.32,9.32,9.32h26.92c1.03,0,3.1,0,4.14-1.04v37.27c-1.04-1.03-2.07-1.03-4.14-1.03
			h-26.92c-5.18,0-9.32,4.14-9.32,9.31c0,5.18,4.14,9.32,9.32,9.32h26.92c1.03,0,3.1,0,4.14-1.03l-1.04,81.79l-44.51,44.51
			l-44.52-44.51l3.11-393.42L376.07,198.6z"/>
		<path d="M368.82,53.66v53.83c0,3.11-1.03,5.18-3.1,7.25s-4.14,3.11-7.25,3.11h-53.83c-5.18,0-9.32-4.14-9.32-9.32V54.69
			c0-5.17,4.14-9.31,9.32-9.31l54.87-1.04C364.68,44.34,368.82,48.48,368.82,53.66z"/>
	</g>
</g>
</svg>
