<svg xmlns="http://www.w3.org/2000/svg" xmlns:xlink="http://www.w3.org/1999/xlink" version="1.0" id="svg" x="0px" y="0px" width="100px" height="100px" viewBox="5.0 -10.0 100.0 135.0" enable-background="new 0 0 100 100" xml:space="preserve">
<path fill="#000000" d="M63.384,26.616c-0.487-0.488-1.278-0.488-1.768,0l-37.5,37.5C23.882,64.352,23.75,64.669,23.75,65v9.482  L11.616,86.616c-0.488,0.487-0.488,1.278,0,1.768c0.244,0.244,0.564,0.366,0.884,0.366s0.64-0.122,0.884-0.366L25.518,76.25H35  c0.332,0,0.649-0.132,0.884-0.366l37.5-37.5c0.488-0.488,0.488-1.279,0-1.768L63.384,26.616z M63.666,44.566  c-0.061-0.163-0.15-0.318-0.282-0.45l-2.5-2.5c-0.487-0.488-1.278-0.488-1.768,0c-0.489,0.488-0.488,1.279,0,1.768l2.5,2.5  c0.132,0.132,0.286,0.222,0.45,0.282l-3.4,3.4c-0.061-0.163-0.15-0.318-0.282-0.45l-2.5-2.5c-0.487-0.488-1.278-0.488-1.768,0  c-0.489,0.488-0.488,1.279,0,1.768l2.5,2.5c0.132,0.132,0.286,0.222,0.45,0.282l-3.4,3.4c-0.061-0.164-0.15-0.318-0.282-0.45  l-2.5-2.5c-0.488-0.488-1.279-0.488-1.768,0c-0.489,0.487-0.488,1.278,0,1.768l2.5,2.5c0.132,0.132,0.286,0.222,0.45,0.282l-3.4,3.4  c-0.061-0.164-0.15-0.318-0.282-0.45l-2.5-2.5c-0.488-0.488-1.279-0.488-1.768,0c-0.489,0.487-0.488,1.278,0,1.768l2.5,2.5  c0.132,0.132,0.287,0.222,0.451,0.282l-3.401,3.4c-0.061-0.164-0.15-0.318-0.282-0.45l-2.5-2.5c-0.488-0.488-1.279-0.488-1.768,0  c-0.489,0.487-0.488,1.278,0,1.768l2.5,2.5c0.132,0.132,0.287,0.222,0.451,0.282l-7.584,7.584H26.25v-8.232l36.25-36.25l8.232,8.232  L63.666,44.566z M78.384,16.616c-0.487-0.488-1.278-0.488-1.768,0l-5,5c-0.488,0.488-0.488,1.279,0,1.768l5,5  c0.243,0.244,0.563,0.366,0.884,0.366s0.641-0.122,0.884-0.366l5-5c0.488-0.488,0.488-1.279,0-1.768L78.384,16.616z M65.884,21.616  c-0.487-0.488-1.278-0.488-1.768,0c-0.489,0.488-0.488,1.279,0,1.768l12.5,12.5c0.243,0.244,0.563,0.366,0.884,0.366  s0.641-0.122,0.884-0.366c0.488-0.488,0.488-1.279,0-1.768L65.884,21.616z M88.384,19.116l-7.5-7.5  c-0.487-0.488-1.278-0.488-1.768,0c-0.489,0.488-0.488,1.279,0,1.768l7.5,7.5c0.243,0.244,0.563,0.366,0.884,0.366  s0.641-0.122,0.884-0.366C88.872,20.396,88.872,19.604,88.384,19.116z"/>
<text x="0.0" y="117.5" font-size="5.0" font-weight="bold" font-family="Helvetica Neue, Helvetica, Arial-Unicode, Arial, Sans-serif" fill="#000000">Created by Wojciech Zasina</text><text x="0.0" y="122.5" font-size="5.0" font-weight="bold" font-family="Helvetica Neue, Helvetica, Arial-Unicode, Arial, Sans-serif" fill="#000000">from the Noun Project</text></svg>