<?xml version="1.0" encoding="utf-8"?>
<!-- Generator: Adobe Illustrator 18.1.1, SVG Export Plug-In . SVG Version: 6.00 Build 0)  -->
<svg version="1.1" id="svg" xmlns="http://www.w3.org/2000/svg" xmlns:xlink="http://www.w3.org/1999/xlink" x="0px" y="0px"
	 viewBox="-384 237 14.9 76.5" enable-background="new -384 237 14.9 76.5" xml:space="preserve">
<path d="M-381.8,254c-0.5,0-0.9,0.4-0.9,0.9l-0.3,39.3c0,0.2,0.1,0.5,0.3,0.7l4.9,5l-0.1,12.7c0,0.5,0.4,0.9,0.9,0.9
	c0.3,0,0.5-0.1,0.7-0.3s0.3-0.4,0.3-0.7l0.1-12.7l5-4.9c0.2-0.2,0.3-0.4,0.3-0.7l0.3-39.3c0-0.5-0.4-0.9-0.9-0.9L-381.8,254z
	 M-372.3,263.3c-0.1-0.1-0.2-0.1-0.4-0.1l-2.6,0c-0.5,0-0.9,0.4-0.9,0.9c0,0.5,0.4,0.9,0.9,0.9l2.6,0c0.1,0,0.3,0,0.4-0.1l0,3.6
	c-0.1-0.1-0.2-0.1-0.4-0.1l-2.6,0c-0.5,0-0.9,0.4-0.9,0.9c0,0.5,0.4,0.9,0.9,0.9l2.6,0c0.1,0,0.3,0,0.4-0.1l0,3.6
	c-0.1-0.1-0.2-0.1-0.4-0.1l-2.6,0c-0.5,0-0.9,0.4-0.9,0.9c0,0.5,0.4,0.9,0.9,0.9l2.6,0c0.1,0,0.3,0,0.4-0.1l0,3.6
	c-0.1-0.1-0.2-0.1-0.4-0.1l-2.6,0c-0.5,0-0.9,0.4-0.9,0.9c0,0.5,0.4,0.9,0.9,0.9l2.6,0c0.1,0,0.3,0,0.4-0.1l0,3.6
	c-0.1-0.1-0.2-0.1-0.4-0.1l-2.6,0c-0.5,0-0.9,0.4-0.9,0.9c0,0.5,0.4,0.9,0.9,0.9l2.6,0c0.1,0,0.3,0,0.4-0.1l-0.1,7.9l-4.3,4.3
	l-4.3-4.3l0.3-38l8.6,0.1L-372.3,263.3z M-379,240.9c-0.5,0-0.9,0.4-0.9,0.9l0,5.2c0,0.5,0.4,0.9,0.9,0.9l5.2,0
	c0.3,0,0.5-0.1,0.7-0.3c0.2-0.2,0.3-0.4,0.3-0.7l0-5.2c0-0.5-0.4-0.9-0.9-0.9L-379,240.9z M-383.1,250.1c-0.5,0-0.9,0.4-0.9,0.9
	c0,0.5,0.4,0.9,0.9,0.9l13.1,0.1c0.3,0,0.5-0.1,0.7-0.3c0.2-0.2,0.3-0.4,0.3-0.7c0-0.5-0.4-0.9-0.9-0.9L-383.1,250.1z M-372.5,237.1
	l-7.9-0.1c-0.5,0-0.9,0.4-0.9,0.9c0,0.5,0.4,0.9,0.9,0.9l7.9,0.1c0.3,0,0.5-0.1,0.7-0.3c0.2-0.2,0.3-0.4,0.3-0.7
	C-371.5,237.5-372,237.1-372.5,237.1z"/>
</svg>
