<?xml version="1.0" encoding="utf-8"?>
<!-- Generator: Adobe Illustrator 18.1.1, SVG Export Plug-In . SVG Version: 6.00 Build 0)  -->
<svg version="1.1" id="svg" xmlns="http://www.w3.org/2000/svg" xmlns:xlink="http://www.w3.org/1999/xlink" x="0px" y="0px"
	 viewBox="-389.7 231.2 24.1 68.5" enable-background="new -389.7 231.2 24.1 68.5" xml:space="preserve">
<path d="M-371.2,261.6c-0.1-0.5-0.6-0.8-1.1-0.7c-0.5,0.1-0.8,0.6-0.7,1.1l3.5,17.4h-4.4c-0.5,0-0.9,0.4-0.9,0.8l-1.9,18.5
	c-0.1,0.5,0.3,1,0.8,1c0,0,0.1,0,0.1,0c0.5,0,0.9-0.4,0.9-0.8l1.8-17.7h4.7c0.3,0,0.5-0.1,0.7-0.3s0.2-0.5,0.2-0.8L-371.2,261.6z
	 M-381.4,279.3h-4.4l3.5-17.4c0.1-0.5-0.2-1-0.7-1.1c-0.5-0.1-1,0.2-1.1,0.7l-3.7,18.5c-0.1,0.3,0,0.6,0.2,0.8
	c0.2,0.2,0.4,0.3,0.7,0.3h4.7l1.8,17.7c0,0.5,0.5,0.8,0.9,0.8c0,0,0.1,0,0.1,0c0.5-0.1,0.9-0.5,0.8-1l-1.9-18.5
	C-380.5,279.7-380.9,279.3-381.4,279.3z M-365.7,267.1l-3.7-16.7c0-0.2-0.1-0.3-0.2-0.5l-2.2-2.2c0.4-0.1,0.6-0.5,0.6-0.9
	c0-2.5,0-7-1.7-9.4l1.6-3.2c0.1-0.2,0.1-0.5,0-0.8c-0.1-0.2-0.3-0.4-0.6-0.5l-5.6-1.9c-0.2-0.1-0.4-0.1-0.6,0l-5.6,1.9
	c-0.3,0.1-0.5,0.3-0.6,0.5c-0.1,0.2-0.1,0.5,0,0.8l1.6,3.2c-1.7,2.4-1.7,7-1.7,9.4c0,0.4,0.2,0.7,0.6,0.9l-2.2,2.2
	c-0.1,0.1-0.2,0.3-0.2,0.5l-3.7,16.7c-0.1,0.5,0.2,1,0.7,1.1c0.5,0.1,1-0.2,1.1-0.7l3.6-16.4l3.5-3.5c0.3-0.3,0.3-0.7,0.2-1
	c-0.1-0.3-0.5-0.6-0.9-0.6h-0.9c0-2.3,0.2-6.3,1.6-7.7c0.3-0.3,0.4-0.7,0.2-1.1l-1.4-2.7l4.2-1.4l4.2,1.4l-1.4,2.7
	c-0.2,0.4-0.1,0.8,0.2,1.1c1.4,1.4,1.6,5.3,1.6,7.7h-0.9c-0.4,0-0.7,0.2-0.9,0.6c-0.1,0.3-0.1,0.7,0.2,1l3.5,3.5l3.6,16.4
	c0.1,0.4,0.5,0.7,0.9,0.7c0.1,0,0.1,0,0.2,0C-365.9,268.1-365.6,267.6-365.7,267.1z M-378.4,235.2c-0.2,0.2-0.3,0.4-0.3,0.7
	s0.1,0.5,0.3,0.7c0.2,0.2,0.4,0.3,0.7,0.3s0.5-0.1,0.7-0.3c0.2-0.2,0.3-0.4,0.3-0.7s-0.1-0.5-0.3-0.7
	C-377.4,234.8-378,234.8-378.4,235.2z"/>
</svg>
