<svg xmlns="http://www.w3.org/2000/svg" xmlns:xlink="http://www.w3.org/1999/xlink" version="1.0" id="svg" x="0px" y="0px" width="100px" height="100px" viewBox="5.0 -10.0 100.0 135.0" enable-background="new 0 0 100 100" xml:space="preserve">
<path fill="#000000" d="M58.727,44.755c-0.137-0.677-0.799-1.116-1.472-0.98c-0.677,0.135-1.116,0.794-0.979,1.471l4.701,23.505H55  c-0.643,0-1.18,0.487-1.244,1.125l-2.5,25c-0.068,0.687,0.432,1.3,1.119,1.368c0.042,0.004,0.084,0.006,0.126,0.006  c0.634,0,1.179-0.48,1.242-1.125l2.388-23.875H62.5c0.375,0,0.729-0.168,0.967-0.458s0.333-0.67,0.26-1.038L58.727,44.755z   M45,68.75h-5.975l4.701-23.505c0.136-0.677-0.304-1.335-0.98-1.471c-0.672-0.136-1.336,0.303-1.471,0.98l-5,25  c-0.074,0.367,0.021,0.748,0.259,1.038c0.238,0.29,0.592,0.458,0.967,0.458h6.369l2.388,23.875c0.064,0.645,0.608,1.125,1.242,1.125  c0.042,0,0.083-0.002,0.126-0.006c0.687-0.068,1.188-0.682,1.119-1.368l-2.5-25C46.18,69.236,45.642,68.75,45,68.75z M66.221,52.229  l-5-22.5c-0.053-0.232-0.168-0.445-0.337-0.613l-2.944-2.945c0.475-0.178,0.813-0.635,0.813-1.171c0-3.399,0-9.506-2.268-12.672  l2.136-4.269c0.162-0.324,0.175-0.703,0.037-1.038c-0.14-0.334-0.416-0.593-0.761-0.708l-7.5-2.5c-0.257-0.085-0.534-0.085-0.791,0  l-7.5,2.5c-0.344,0.115-0.621,0.373-0.759,0.708c-0.139,0.335-0.125,0.713,0.037,1.038l2.136,4.271  c-2.27,3.199-2.27,9.513-2.27,12.67c0,0.536,0.337,0.993,0.812,1.171l-2.945,2.945c-0.168,0.168-0.285,0.38-0.336,0.613l-5,22.5  c-0.15,0.674,0.275,1.342,0.949,1.492c0.675,0.15,1.342-0.275,1.491-0.949l4.921-22.146l4.743-4.743  c0.357-0.357,0.464-0.895,0.271-1.362C45.961,24.055,45.505,23.75,45,23.75h-1.245c0.033-3.102,0.281-8.518,2.129-10.366  c0.38-0.38,0.475-0.961,0.234-1.443L44.263,8.23L50,6.317l5.736,1.913l-1.854,3.711c-0.241,0.481-0.146,1.063,0.234,1.443  c1.862,1.863,2.099,7.162,2.129,10.366H55c-0.505,0-0.961,0.305-1.154,0.771c-0.193,0.467-0.087,1.005,0.271,1.362l4.742,4.743  l4.92,22.146c0.131,0.582,0.646,0.979,1.221,0.979c0.09,0,0.182-0.01,0.271-0.028C65.945,53.57,66.37,52.902,66.221,52.229z   M49.12,9.12c-0.24,0.23-0.37,0.55-0.37,0.88s0.13,0.65,0.37,0.88c0.23,0.24,0.55,0.37,0.88,0.37s0.65-0.13,0.88-0.37  c0.24-0.23,0.37-0.55,0.37-0.88s-0.13-0.65-0.37-0.88C50.41,8.65,49.59,8.65,49.12,9.12z"/>
<text x="0.0" y="117.5" font-size="5.0" font-weight="bold" font-family="Helvetica Neue, Helvetica, Arial-Unicode, Arial, Sans-serif" fill="#000000">Created by Wojciech Zasina</text><text x="0.0" y="122.5" font-size="5.0" font-weight="bold" font-family="Helvetica Neue, Helvetica, Arial-Unicode, Arial, Sans-serif" fill="#000000">from the Noun Project</text></svg>