<?xml version="1.0" encoding="utf-8"?>
<!-- Generator: Adobe Illustrator 17.0.0, SVG Export Plug-In . SVG Version: 6.00 Build 0)  -->
<!DOCTYPE svg PUBLIC "-//W3C//DTD SVG 1.1//EN" "http://www.w3.org/Graphics/SVG/1.1/DTD/svg11.dtd">
<svg version="1.1" id="svg" xmlns="http://www.w3.org/2000/svg" xmlns:xlink="http://www.w3.org/1999/xlink" x="0px" y="0px"
	 width="280.238px" height="795.179px" viewBox="171.441 -1 280.238 795.179" enable-background="new 171.441 -1 280.238 795.179"
	 xml:space="preserve">
<path d="M387.875,353.665c-1.156-5.781-6.937-9.249-12.718-8.094c-5.781,1.156-9.249,6.937-8.094,12.718l40.467,201.18h-50.873
	c-5.781,0-10.406,4.625-10.406,9.25l-21.968,213.898c-1.156,5.781,3.468,11.562,9.25,11.562h1.156c5.781,0,10.406-4.625,10.406-9.25
	l20.812-204.648h54.342c3.468,0,5.781-1.156,8.094-3.468s2.313-5.781,2.313-9.25L387.875,353.665z M269.942,558.313h-50.873
	l40.467-201.179c1.156-5.781-2.313-11.562-8.094-12.718c-5.781-1.156-11.562,2.313-12.718,8.094l-42.78,213.898
	c-1.156,3.468,0,6.937,2.313,9.249c2.313,2.313,4.625,3.469,8.094,3.469h54.342l20.812,204.648c0,5.781,5.781,9.25,10.406,9.25
	h1.156c5.781-1.156,10.406-5.781,9.249-11.562l-21.968-213.898C280.348,562.939,275.723,558.313,269.942,558.313z M451.466,417.257
	l-42.78-193.086c0-2.312-1.156-3.469-2.313-5.781l-25.437-25.436c4.625-1.156,6.937-5.781,6.937-10.406
	c0-28.905,0-80.934-19.656-108.683l18.499-36.999c1.156-2.312,1.156-5.781,0-9.25c-1.156-2.312-3.468-4.625-6.937-5.781
	L315.033-0.133c-2.313-1.156-4.625-1.156-6.937,0l-64.747,21.968c-3.468,1.156-5.781,3.469-6.937,5.781
	c-1.156,2.312,18.499,46.248,18.499,46.248c-19.656,27.749-19.656,80.934-19.656,108.683c0,4.625,2.313,8.093,6.937,10.406
	l-25.437,25.436c-1.156,1.156-2.313,3.469-2.313,5.781l-42.78,193.086c-1.156,5.781,2.313,11.562,8.094,12.718
	s11.562-2.313,12.718-8.094l41.623-189.617l40.467-40.467c3.468-3.469,3.468-8.093,2.313-11.562
	c-1.156-3.469-5.781-6.937-10.406-6.937h-10.406c0-26.593,2.313-72.841,18.499-89.028c3.468-3.469,4.625-8.093,2.313-12.718
	L260.69,40.334l48.561-16.187l48.561,16.187l-16.187,31.217c-2.313,4.625-1.156,9.25,2.313,12.718
	c16.187,16.187,18.499,61.279,18.499,89.028h-10.406c-4.625,0-8.094,2.312-10.406,6.937c-1.156,3.469-1.156,8.093,2.313,11.562
	l40.467,40.467l41.623,189.617c1.156,4.625,5.781,8.094,10.406,8.094c1.156,0,1.156,0,2.313,0
	C449.154,428.819,452.622,423.038,451.466,417.257z M304.628,48.427c-2.313,2.312-3.468,4.625-3.468,8.093
	c0,3.469,1.156,5.781,3.468,8.093c2.313,2.312,4.625,3.469,8.094,3.469s5.781-1.156,8.094-3.469
	c2.313-2.312,3.468-4.625,3.468-8.093c0-3.469-1.156-5.781-3.468-8.093C316.19,43.803,309.253,43.803,304.628,48.427z"/>
<path d="M252.681,213.681"/>
<polyline points="369.824,217.681 357.718,224.304 318.5,300.5 292.5,300.5 248.681,217.681 234.099,232.264 280.008,316.835 
	296.438,319.112 296.438,396.578 319.562,396.578 319.562,321.425 335.991,319.767 382.052,229.909 365.824,213.681 
	357.718,224.304 "/>
<ellipse cx="307.972" cy="414.559" rx="22.528" ry="21.997"/>
</svg>
