<svg xmlns="http://www.w3.org/2000/svg" xmlns:xlink="http://www.w3.org/1999/xlink" version="1.0" id="svg" x="0px" y="0px" width="100px" height="100px" viewBox="5.0 -10.0 100.0 135.0" enable-background="new 0 0 100 100" xml:space="preserve">
<path fill="#000000" d="M61.514,63.085c4.281-2.66,6.524-7.854,5.762-13.555c-0.873-6.517-5.277-11.58-11.313-13.094l-2.277-6.832  c-0.218-0.655-0.926-1.007-1.582-0.791c-0.653,0.218-1.008,0.926-0.791,1.582l2.5,7.5c0.144,0.425,0.502,0.742,0.941,0.83  c6.484,1.297,9.462,6.81,10.042,11.136c0.675,5.036-1.428,9.557-5.356,11.521c-0.556,0.278-0.822,0.923-0.627,1.515l1.953,5.854  H41.381l2.301-23.011l10.759,5.379c0.18,0.09,0.369,0.132,0.558,0.132c0.458,0,0.899-0.253,1.119-0.69  c0.31-0.619,0.058-1.369-0.56-1.678l-14.195-7.097l2.373-16.608c0.004-0.031-0.007-0.059-0.005-0.089  c0.002-0.03,0.018-0.057,0.018-0.088c0-0.056-0.025-0.104-0.032-0.158c-0.011-0.084-0.022-0.165-0.049-0.244  c-0.026-0.077-0.063-0.144-0.103-0.212c-0.04-0.07-0.08-0.135-0.132-0.196c-0.053-0.061-0.113-0.109-0.176-0.159  c-0.063-0.049-0.123-0.095-0.195-0.131c-0.075-0.039-0.153-0.061-0.236-0.084c-0.052-0.014-0.096-0.045-0.15-0.053  c-0.031-0.004-0.059,0.007-0.089,0.005c-0.03-0.002-0.056-0.018-0.087-0.018h-1.25V12.5c0-4.322,1.928-6.25,6.25-6.25  c3.576,0,5.716,3.177,6.25,4.075v6.657l-4.634,4.634c-0.488,0.488-0.488,1.279,0,1.768c0.488,0.489,1.279,0.488,1.77,0l5-5  c0.232-0.234,0.364-0.552,0.364-0.884V10c0-0.194-0.045-0.385-0.132-0.559C56.002,9.208,53.207,3.75,47.5,3.75  c-5.724,0-8.75,3.026-8.75,8.75V25c0,0.69,0.56,1.25,1.25,1.25h1.059l-2.296,16.073c-0.002,0.017,0.004,0.031,0.003,0.048  c-0.01,0.091,0.005,0.178,0.015,0.268c0.008,0.074,0.007,0.147,0.028,0.217c0.023,0.077,0.066,0.142,0.103,0.213  c0.038,0.072,0.067,0.145,0.118,0.208c0.045,0.057,0.107,0.098,0.163,0.147c0.067,0.059,0.13,0.12,0.209,0.164  c0.015,0.008,0.023,0.022,0.039,0.03l1.909,0.955c-0.037,0.099-0.082,0.193-0.093,0.303l-2.5,25  c-0.035,0.353,0.08,0.701,0.317,0.963C39.31,71.102,39.647,71.25,40,71.25h3.869l2.387,23.875c0.064,0.645,0.608,1.125,1.242,1.125  c0.042,0,0.083-0.002,0.126-0.006c0.687-0.068,1.188-0.682,1.119-1.368L46.381,71.25h7.238l-2.363,23.625  c-0.068,0.688,0.432,1.3,1.119,1.368c0.042,0.004,0.084,0.006,0.126,0.006c0.634,0,1.179-0.481,1.242-1.125l2.387-23.875h6.37  c0.402,0,0.779-0.192,1.014-0.519c0.235-0.326,0.299-0.746,0.172-1.127L61.514,63.085z M46.382,39.441  c-0.309,0.618-0.058,1.368,0.559,1.677l5,2.5c0.18,0.09,0.369,0.132,0.558,0.132c0.458,0,0.899-0.253,1.119-0.691  c0.31-0.618,0.058-1.368-0.56-1.677l-5-2.5C47.441,38.573,46.691,38.824,46.382,39.441z"/>
<text x="0.0" y="117.5" font-size="5.0" font-weight="bold" font-family="Helvetica Neue, Helvetica, Arial-Unicode, Arial, Sans-serif" fill="#000000">Created by Wojciech Zasina</text><text x="0.0" y="122.5" font-size="5.0" font-weight="bold" font-family="Helvetica Neue, Helvetica, Arial-Unicode, Arial, Sans-serif" fill="#000000">from the Noun Project</text></svg>