<?xml version="1.0" encoding="utf-8"?>
<!-- Generator: Adobe Illustrator 18.1.1, SVG Export Plug-In . SVG Version: 6.00 Build 0)  -->
<svg version="1.1" id="svg" xmlns="http://www.w3.org/2000/svg" xmlns:xlink="http://www.w3.org/1999/xlink" x="0px" y="0px"
	 viewBox="-386 231.2 21.2 68.5" enable-background="new -386 231.2 21.2 68.5" xml:space="preserve">
<path d="M-369.2,275.1c3.2-2,4.8-5.8,4.3-10c-0.6-4.8-3.9-8.6-8.4-9.7l-1.7-5.1c-0.2-0.5-0.7-0.7-1.2-0.6c-0.5,0.2-0.7,0.7-0.6,1.2
	l1.9,5.6c0.1,0.3,0.4,0.5,0.7,0.6c4.8,1,7,5,7.4,8.2c0.5,3.7-1.1,7.1-4,8.5c-0.4,0.2-0.6,0.7-0.5,1.1l1.4,4.3h-14.4l1.7-17l8,4
	c0.1,0.1,0.3,0.1,0.4,0.1c0.3,0,0.7-0.2,0.8-0.5c0.2-0.5,0-1-0.4-1.2l-10.5-5.3l1.8-12.3c0,0,0,0,0-0.1c0,0,0,0,0-0.1
	c0,0,0-0.1,0-0.1c0-0.1,0-0.1,0-0.2c0-0.1,0-0.1-0.1-0.2c0-0.1-0.1-0.1-0.1-0.1c0,0-0.1-0.1-0.1-0.1c0,0-0.1-0.1-0.1-0.1
	c-0.1,0-0.1,0-0.2-0.1c0,0-0.1,0-0.1,0c0,0,0,0-0.1,0s0,0-0.1,0h-0.9v-8.3c0-3.2,1.4-4.6,4.6-4.6c2.6,0,4.2,2.4,4.6,3v4.9l-3.4,3.4
	c-0.4,0.4-0.4,0.9,0,1.3c0.4,0.4,0.9,0.4,1.3,0l3.7-3.7c0.2-0.2,0.3-0.4,0.3-0.7v-5.6c0-0.1,0-0.3-0.1-0.4c-0.1-0.2-2.2-4.2-6.4-4.2
	c-4.2,0-6.5,2.2-6.5,6.5v9.3c0,0.5,0.4,0.9,0.9,0.9h0.8l-1.7,11.9c0,0,0,0,0,0c0,0.1,0,0.1,0,0.2c0,0.1,0,0.1,0,0.2
	c0,0.1,0,0.1,0.1,0.2c0,0.1,0,0.1,0.1,0.2c0,0,0.1,0.1,0.1,0.1c0,0,0.1,0.1,0.2,0.1c0,0,0,0,0,0l1.4,0.7c0,0.1-0.1,0.1-0.1,0.2
	l-1.9,18.5c0,0.3,0.1,0.5,0.2,0.7c0.2,0.2,0.4,0.3,0.7,0.3h2.9l1.8,17.7c0,0.5,0.5,0.8,0.9,0.8c0,0,0.1,0,0.1,0
	c0.5-0.1,0.9-0.5,0.8-1l-1.7-17.5h5.4l-1.8,17.5c-0.1,0.5,0.3,1,0.8,1c0,0,0.1,0,0.1,0c0.5,0,0.9-0.4,0.9-0.8l1.8-17.7h4.7
	c0.3,0,0.6-0.1,0.8-0.4c0.2-0.2,0.2-0.6,0.1-0.8L-369.2,275.1z M-380.4,257.6c-0.2,0.5,0,1,0.4,1.2l3.7,1.9c0.1,0.1,0.3,0.1,0.4,0.1
	c0.3,0,0.7-0.2,0.8-0.5c0.2-0.5,0-1-0.4-1.2l-3.7-1.9C-379.6,257-380.2,257.2-380.4,257.6z"/>
</svg>
