<?xml version="1.0" encoding="utf-8"?>
<!-- Generator: Adobe Illustrator 18.1.1, SVG Export Plug-In . SVG Version: 6.00 Build 0)  -->
<svg version="1.1" id="svg" xmlns="http://www.w3.org/2000/svg" xmlns:xlink="http://www.w3.org/1999/xlink" x="0px" y="0px"
	 viewBox="-410.1 253.4 64.8 37.2" enable-background="new -410.1 253.4 64.8 37.2" xml:space="preserve">
<path d="M-346.2,264.5h-3.2l-7.1-10.7c0,0,0,0,0,0c0-0.1-0.1-0.1-0.1-0.1c0,0-0.1-0.1-0.1-0.1c0,0-0.1,0-0.2-0.1
	c-0.1,0-0.1,0-0.2-0.1c-0.1,0-0.1,0-0.2,0c-0.1,0-0.1,0-0.2,0c0,0,0,0,0,0l-14.7,3.7l-16.5-1.8c-0.5-0.1-1,0.3-1,0.8
	c-0.1,0.5,0.3,1,0.8,1l16.7,1.9c0,0,0.1,0,0.1,0c0.1,0,0.2,0,0.2,0l14.2-3.5l6.1,9.1h-38.9l-5.4-1.8c-0.2-0.1-0.4-0.1-0.6,0
	l-5.4,1.8c-3.1,0-4.5-1.5-4.5-4.6c0-2.6,2.4-4.2,3-4.6h4.9l3.4,3.4c0.4,0.4,0.9,0.4,1.3,0c0.4-0.4,0.4-0.9,0-1.3l-3.7-3.7
	c-0.2-0.2-0.4-0.3-0.7-0.3h-5.6c-0.1,0-0.3,0-0.4,0.1c-0.2,0.1-4.2,2.2-4.2,6.4c0,2,0.5,3.5,1.5,4.6h-2.4c-0.5,0-0.9,0.4-0.9,0.9
	c0,0.5,0.4,0.9,0.9,0.9h18.5c0,0,0,0,0,0c0,0,0,0,0,0h44.4c0.5,0,0.9-0.4,0.9-0.9C-345.3,264.9-345.7,264.5-346.2,264.5z
	 M-372.1,277.5c0.1,0,0.3,0,0.4-0.1l11.1-5.6c0.5-0.2,0.6-0.8,0.4-1.2c-0.2-0.5-0.8-0.6-1.2-0.4l-11.1,5.6c-0.5,0.2-0.6,0.8-0.4,1.2
	C-372.8,277.3-372.5,277.5-372.1,277.5z M-383.7,281.3l-8.6,4.3c-0.5-0.5-1.3-0.9-2.1-0.9c-1.6,0-3,1.3-3,3s1.3,3,3,3
	c1.6,0,3-1.3,3-3c0-0.1,0-0.3,0-0.4l8.6-4.3c0.5-0.2,0.6-0.8,0.4-1.2C-382.7,281.2-383.2,281.1-383.7,281.3z M-361,284.7
	c-0.8,0-1.6,0.3-2.1,0.9l-30.8-15.4c-0.5-0.2-1,0-1.2,0.4c-0.2,0.5,0,1,0.4,1.2l30.8,15.4c0,0.1,0,0.3,0,0.4c0,1.6,1.3,3,3,3
	c1.6,0,3-1.3,3-3S-359.4,284.7-361,284.7z"/>
</svg>
