<svg xmlns="http://www.w3.org/2000/svg" xmlns:xlink="http://www.w3.org/1999/xlink" version="1.0" id="svg" x="0px" y="0px" width="100px" height="100px" viewBox="5.0 -10.0 100.0 135.0" enable-background="new 0 0 100 100" xml:space="preserve">
<path fill="#000000" d="M92.5,48.75h-4.331L78.54,34.307c-0.007-0.01-0.019-0.015-0.024-0.025c-0.056-0.077-0.127-0.134-0.197-0.196  c-0.053-0.047-0.098-0.103-0.154-0.14c-0.066-0.044-0.146-0.063-0.227-0.092c-0.071-0.028-0.142-0.066-0.219-0.08  c-0.07-0.013-0.143-0.001-0.215-0.001c-0.092,0-0.182-0.008-0.271,0.012c-0.012,0.002-0.021-0.001-0.035,0.001l-19.78,4.946  L35.14,36.257c-0.673-0.076-1.303,0.417-1.38,1.104c-0.076,0.686,0.418,1.304,1.104,1.38l22.5,2.5  c0.047,0.005,0.093,0.008,0.139,0.008c0.104,0,0.204-0.013,0.305-0.037l19.146-4.787l8.216,12.324H32.703l-7.308-2.436  c-0.258-0.085-0.533-0.085-0.791,0l-7.303,2.435c-4.184-0.059-6.052-1.993-6.052-6.249c0-3.576,3.177-5.716,4.075-6.25h6.657  l4.634,4.634c0.488,0.488,1.279,0.488,1.768,0c0.489-0.488,0.488-1.279,0-1.768l-5-5c-0.234-0.234-0.553-0.366-0.884-0.366H15  c-0.194,0-0.386,0.045-0.559,0.132C14.209,33.998,8.75,36.793,8.75,42.5c0,2.696,0.68,4.785,1.988,6.25H7.5  c-0.69,0-1.25,0.56-1.25,1.25c0,0.689,0.56,1.25,1.25,1.25h24.997c0.001,0,0.002,0,0.003,0s0.002,0,0.003,0H92.5  c0.689,0,1.25-0.561,1.25-1.25C93.75,49.31,93.189,48.75,92.5,48.75z M57.501,66.25c0.188,0,0.379-0.043,0.558-0.132l15-7.5  c0.619-0.31,0.869-1.06,0.562-1.677c-0.31-0.616-1.062-0.866-1.679-0.561l-15,7.5c-0.616,0.311-0.866,1.061-0.56,1.678  C56.602,65.997,57.042,66.25,57.501,66.25z M41.941,71.382l-11.604,5.802C29.611,76.454,28.608,76,27.5,76c-2.206,0-4,1.794-4,4  s1.794,4,4,4s4-1.794,4-4c0-0.195-0.03-0.385-0.058-0.574l11.616-5.808c0.618-0.31,0.868-1.06,0.56-1.677  C43.31,71.324,42.559,71.075,41.941,71.382z M72.5,76c-1.107,0-2.111,0.454-2.837,1.184L28.059,56.382  c-0.615-0.309-1.369-0.057-1.677,0.56c-0.309,0.617-0.059,1.367,0.56,1.678l41.617,20.808C68.529,79.615,68.5,79.805,68.5,80  c0,2.206,1.794,4,4,4s4-1.794,4-4S74.706,76,72.5,76z"/>
<text x="0.0" y="117.5" font-size="5.0" font-weight="bold" font-family="Helvetica Neue, Helvetica, Arial-Unicode, Arial, Sans-serif" fill="#000000">Created by Wojciech Zasina</text><text x="0.0" y="122.5" font-size="5.0" font-weight="bold" font-family="Helvetica Neue, Helvetica, Arial-Unicode, Arial, Sans-serif" fill="#000000">from the Noun Project</text></svg>