<svg xmlns="http://www.w3.org/2000/svg" xmlns:xlink="http://www.w3.org/1999/xlink" version="1.0" id="svg" x="0px" y="0px" width="100px" height="100px" viewBox="5.0 -10.0 100.0 135.0" enable-background="new 0 0 100 100" xml:space="preserve">
<path fill="#000000" d="M36.314,42.896c0.218,0.654,0.923,1.007,1.582,0.791c0.655-0.218,1.009-0.926,0.791-1.582l-2.436-7.307  v-4.025l9.309-4.654c0.423-0.212,0.691-0.645,0.691-1.118v-0.478l3.191,1.596c0.176,0.088,0.368,0.132,0.559,0.132  s0.383-0.044,0.56-0.132l3.19-1.596V25c0,0.474,0.269,0.906,0.69,1.118l9.31,4.654v4.025l-2.437,7.307  c-0.217,0.655,0.137,1.363,0.791,1.582c0.131,0.043,0.266,0.064,0.396,0.064c0.522,0,1.013-0.332,1.187-0.855l2.5-7.5  c0.043-0.127,0.063-0.261,0.063-0.396v-5c0-0.474-0.269-0.906-0.69-1.118l-9.31-4.654v-1.433l2.368-4.736  c0.008-0.016,0.011-0.033,0.02-0.049c0.01-0.023,0.016-0.046,0.023-0.07c0.053-0.141,0.089-0.289,0.089-0.44V10  c0-0.194-0.045-0.385-0.132-0.559C58.502,9.208,55.707,3.75,50,3.75s-8.502,5.458-8.618,5.691C41.295,9.615,41.25,9.806,41.25,10  v7.5c0,0.151,0.036,0.299,0.089,0.44c0.009,0.024,0.015,0.047,0.025,0.07c0.007,0.016,0.01,0.033,0.018,0.049l2.368,4.736v1.433  l-9.309,4.654C34.018,29.094,33.75,29.526,33.75,30v5c0,0.134,0.021,0.268,0.064,0.396L36.314,42.896z M50,23.603l-4.068-2.034  l-1.409-2.818h10.956l-1.41,2.818L50,23.603z M50,6.25c3.576,0,5.716,3.177,6.25,4.075v5.925h-12.5v-5.924  C44.287,9.422,46.426,6.25,50,6.25z M41.616,36.616c-0.488,0.488-0.488,1.279,0,1.768l5,5c0.244,0.244,0.564,0.366,0.884,0.366  s0.64-0.122,0.884-0.366c0.488-0.488,0.488-1.279,0-1.768l-5-5C42.896,36.128,42.104,36.128,41.616,36.616z M56.616,36.616l-5,5  c-0.488,0.488-0.488,1.279,0,1.768c0.243,0.244,0.563,0.366,0.884,0.366s0.641-0.122,0.884-0.366l5-5  c0.488-0.488,0.488-1.279,0-1.768C57.896,36.127,57.104,36.128,56.616,36.616z M80,76.25H22.5c-0.69,0-1.25,0.561-1.25,1.25  s0.56,1.25,1.25,1.25H80c0.689,0,1.25-0.561,1.25-1.25S80.689,76.25,80,76.25z M85,58.75H32.704l-7.308-2.436  c-0.257-0.086-0.534-0.086-0.791,0l-7.303,2.435c-4.183-0.06-6.051-1.993-6.051-6.249c0-3.576,3.177-5.716,4.075-6.25h6.657  l4.634,4.634c0.234,0.234,0.552,0.366,0.884,0.366H30c0.194,0,0.385-0.045,0.559-0.132l4.736-2.368h16.91l4.736,2.368  c0.174,0.086,0.365,0.132,0.559,0.132h12.396l14.896,2.482c0.264,0.043,0.527,0.004,0.766-0.114l5-2.5  c0.616-0.31,0.869-1.06,0.56-1.677c-0.31-0.617-1.06-0.866-1.677-0.559L84.805,51.2l-14.599-2.433  C70.139,48.756,70.068,48.75,70,48.75H57.795l-4.736-2.368c-0.174-0.086-0.365-0.132-0.559-0.132H35  c-0.194,0-0.385,0.045-0.559,0.132l-4.736,2.368h-1.688l-4.634-4.634c-0.234-0.234-0.552-0.366-0.884-0.366H15  c-0.194,0-0.385,0.045-0.559,0.132C14.208,43.998,8.75,46.793,8.75,52.5c0,3.323,1.027,5.73,3.002,7.17  C9.956,60.77,8.75,62.744,8.75,65v25c0,0.689,0.56,1.25,1.25,1.25s1.25-0.561,1.25-1.25V65c0-2.068,1.682-3.75,3.75-3.75h17.497  c0.001,0,0.002,0,0.003,0s0.002,0,0.003,0H85c2.068,0,3.75,1.682,3.75,3.75v25c0,0.689,0.561,1.25,1.25,1.25s1.25-0.561,1.25-1.25  V65C91.25,61.555,88.445,58.75,85,58.75z"/>
<text x="0.0" y="117.5" font-size="5.0" font-weight="bold" font-family="Helvetica Neue, Helvetica, Arial-Unicode, Arial, Sans-serif" fill="#000000">Created by Wojciech Zasina</text><text x="0.0" y="122.5" font-size="5.0" font-weight="bold" font-family="Helvetica Neue, Helvetica, Arial-Unicode, Arial, Sans-serif" fill="#000000">from the Noun Project</text></svg>