<?xml version="1.0" encoding="utf-8"?>
<!-- Generator: Adobe Illustrator 18.1.1, SVG Export Plug-In . SVG Version: 6.00 Build 0)  -->
<svg version="1.1" id="svg" xmlns="http://www.w3.org/2000/svg" xmlns:xlink="http://www.w3.org/1999/xlink" x="0px" y="0px"
	 viewBox="-408.3 231.2 61.1 64.8" enable-background="new -408.3 231.2 61.1 64.8" xml:space="preserve">
<path d="M-387.8,260.2c0.2,0.5,0.7,0.7,1.2,0.6c0.5-0.2,0.7-0.7,0.6-1.2l-1.8-5.4v-3l6.9-3.4c0.3-0.2,0.5-0.5,0.5-0.8v-0.4l2.4,1.2
	c0.1,0.1,0.3,0.1,0.4,0.1s0.3,0,0.4-0.1l2.4-1.2v0.4c0,0.4,0.2,0.7,0.5,0.8l6.9,3.4v3l-1.8,5.4c-0.2,0.5,0.1,1,0.6,1.2
	c0.1,0,0.2,0,0.3,0c0.4,0,0.8-0.2,0.9-0.6l1.9-5.6c0-0.1,0-0.2,0-0.3v-3.7c0-0.4-0.2-0.7-0.5-0.8l-6.9-3.4v-1.1l1.8-3.5c0,0,0,0,0,0
	c0,0,0,0,0-0.1c0-0.1,0.1-0.2,0.1-0.3v-5.6c0-0.1,0-0.3-0.1-0.4c-0.1-0.2-2.2-4.2-6.4-4.2c-4.2,0-6.3,4-6.4,4.2
	c-0.1,0.1-0.1,0.3-0.1,0.4v5.6c0,0.1,0,0.2,0.1,0.3c0,0,0,0,0,0.1c0,0,0,0,0,0l1.8,3.5v1.1l-6.9,3.4c-0.3,0.2-0.5,0.5-0.5,0.8v3.7
	c0,0.1,0,0.2,0,0.3L-387.8,260.2z M-377.7,245.9l-3-1.5l-1-2.1h8.1l-1,2.1L-377.7,245.9z M-377.7,233c2.6,0,4.2,2.4,4.6,3v4.4h-9.3
	v-4.4C-381.9,235.4-380.4,233-377.7,233z M-383.9,255.5c-0.4,0.4-0.4,0.9,0,1.3l3.7,3.7c0.2,0.2,0.4,0.3,0.7,0.3s0.5-0.1,0.7-0.3
	c0.4-0.4,0.4-0.9,0-1.3l-3.7-3.7C-383,255.2-383.6,255.2-383.9,255.5z M-372.8,255.5l-3.7,3.7c-0.4,0.4-0.4,0.9,0,1.3
	c0.2,0.2,0.4,0.3,0.7,0.3c0.2,0,0.5-0.1,0.7-0.3l3.7-3.7c0.4-0.4,0.4-0.9,0-1.3S-372.4,255.2-372.8,255.5z M-355.5,284.9h-42.6
	c-0.5,0-0.9,0.4-0.9,0.9s0.4,0.9,0.9,0.9h42.6c0.5,0,0.9-0.4,0.9-0.9S-355,284.9-355.5,284.9z M-351.8,271.9h-38.7l-5.4-1.8
	c-0.2-0.1-0.4-0.1-0.6,0l-5.4,1.8c-3.1,0-4.5-1.5-4.5-4.6c0-2.6,2.4-4.2,3-4.6h4.9l3.4,3.4c0.2,0.2,0.4,0.3,0.7,0.3h1.9
	c0.1,0,0.3,0,0.4-0.1l3.5-1.8h12.5l3.5,1.8c0.1,0.1,0.3,0.1,0.4,0.1h9.2l11,1.8c0.2,0,0.4,0,0.6-0.1l3.7-1.9
	c0.5-0.2,0.6-0.8,0.4-1.2c-0.2-0.5-0.8-0.6-1.2-0.4l-3.4,1.7l-10.8-1.8c0,0-0.1,0-0.2,0h-9l-3.5-1.8c-0.1-0.1-0.3-0.1-0.4-0.1h-13
	c-0.1,0-0.3,0-0.4,0.1l-3.5,1.8h-1.3l-3.4-3.4c-0.2-0.2-0.4-0.3-0.7-0.3h-5.6c-0.1,0-0.3,0-0.4,0.1c-0.2,0.1-4.2,2.2-4.2,6.4
	c0,2.5,0.8,4.2,2.2,5.3c-1.3,0.8-2.2,2.3-2.2,3.9v18.5c0,0.5,0.4,0.9,0.9,0.9s0.9-0.4,0.9-0.9v-18.5c0-1.5,1.2-2.8,2.8-2.8h13
	c0,0,0,0,0,0s0,0,0,0h38.9c1.5,0,2.8,1.2,2.8,2.8v18.5c0,0.5,0.4,0.9,0.9,0.9s0.9-0.4,0.9-0.9v-18.5
	C-347.1,274-349.2,271.9-351.8,271.9z"/>
</svg>
